<svg xmlns="http://www.w3.org/2000/svg" width="96.029" height="82.389" viewBox="0 0 96.029 82.389">
  <g id="Grupo_591" data-name="Grupo 591" transform="translate(0 0)">
    <path id="Trazado_168" data-name="Trazado 168" d="M413.432-722.394a3.627,3.627,0,0,1-3.9,2.361c-3.5-.1-7-.028-10.5-.028h-1.1v-6.173h6.022l-37.426-37.426c-.922.926-2.033,2.044-3.146,3.161-.686.689-1.365,1.385-2.065,2.06a3.105,3.105,0,0,1-4.592.1q-6.232-5.574-12.439-11.175c-.239-.214-.483-.421-.784-.683-1.744,1.748-3.454,3.467-5.171,5.18-1.932,1.927-3.479,1.92-5.414-.015q-6.36-6.359-12.726-12.713a5.09,5.09,0,0,0-.815-.564l4.484-4.471,11.633,11.656c.33-.289.552-.463.749-.66q2.239-2.23,4.471-4.467c1.862-1.86,3.321-1.918,5.3-.145q6.087,5.444,12.145,10.921c.214.193.436.378.72.623l5.091-5.092c2.033-2.033,3.522-2.039,5.551-.01q18.393,18.39,36.785,36.781c.243.243.5.471.874.823v-4.826h6.252Z" transform="translate(-317.403 782.781)" fill="#f24200"/>
    <g id="Grupo_590" data-name="Grupo 590" transform="translate(0 26.499)">
      <path id="Trazado_169" data-name="Trazado 169" d="M342.6-680.808c1.056.217,2.12.4,3.167.657,10.216,2.518,17.284,8.714,20.529,18.683s1.2,19.164-5.684,27.14a26.29,26.29,0,0,1-15.172,8.807,27.212,27.212,0,0,1-24.139-6.42,26.72,26.72,0,0,1-8.842-15.035,27.1,27.1,0,0,1,4.476-21.962,27.382,27.382,0,0,1,17.034-11.269c.981-.217,1.97-.4,2.956-.6Zm-4.191,44.8a18.856,18.856,0,0,0,.266,2.995,1.61,1.61,0,0,0,1.192.995c.415,0,.867-.6,1.215-1.019.159-.189.13-.555.147-.843.045-.794-.233-1.882.18-2.307.466-.479,1.546-.357,2.358-.506,5.62-1.029,9.4-4.3,8.887-10.468-.231-2.778-1.333-5.146-3.873-6.412a48.925,48.925,0,0,0-6.585-2.45c-.7-.229-1.015-.426-.982-1.217.069-1.67.021-3.344.021-5.017v-2.83a5.727,5.727,0,0,1,4.289,1.924c.686.75,1.3,1.575,2.016,2.289a2.517,2.517,0,0,0,3.106.485,2.456,2.456,0,0,0,1.512-2.744,6.187,6.187,0,0,0-1.392-2.84,9.808,9.808,0,0,0-3.3-2.215c-1.963-.777-4.047-1.247-6.23-1.89,0-.478.02-1.164,0-1.849-.032-.9-.295-1.7-1.325-1.847-.77-.112-1.382.715-1.426,1.856-.027.711,0,1.423,0,2.043a1.7,1.7,0,0,1-.264.132c-.253.024-.507.038-.759.065a11.822,11.822,0,0,0-7.8,3.638c-2.726,2.97-3.36,9.179,1.253,12.4a17.268,17.268,0,0,0,6.605,2.663c.765.155,1,.418.987,1.2-.05,2.617-.017,5.236-.023,7.854a7.985,7.985,0,0,1-.081.808c-2.726.044-4.25-.941-5.253-3.333-.252-.6-.468-1.22-.774-1.792a2.994,2.994,0,0,0-3.67-1.35,2.5,2.5,0,0,0-1.83,2.751c.154,3.315,2.116,5.483,4.909,6.776A50.355,50.355,0,0,0,338.409-636.007Z" transform="translate(-311.796 680.808)" fill="#f24200"/>
      <path id="Trazado_170" data-name="Trazado 170" d="M425.291-553.593v-8.964c3.458.279,5.781,2.213,5.658,4.683C430.828-555.44,428.457-553.6,425.291-553.593Z" transform="translate(-395.798 593.286)" fill="#f24200"/>
      <path id="Trazado_171" data-name="Trazado 171" d="M399.488-611.948c-3.678-.8-5.386-2.316-5.136-4.506.239-2.085,2.46-3.695,5.136-3.67Z" transform="translate(-372.881 635.894)" fill="#f24200"/>
    </g>
  </g>
</svg>
