<svg xmlns="http://www.w3.org/2000/svg" width="84.084" height="81.429" viewBox="0 0 84.084 81.429">
  <g id="Grupo_593" data-name="Grupo 593" transform="translate(0 0)">
    <path id="Trazado_172" data-name="Trazado 172" d="M-931.928-583.291v1.4q0,24.89,0,49.781c0,4.145-1.692,7.322-5.529,9.058a10.267,10.267,0,0,1-4.083.856q-24.841.085-49.682.023a8.967,8.967,0,0,1-8.686-5.351,8.818,8.818,0,0,1,1.18-9.775,9.156,9.156,0,0,1,7.5-3.452q.492,0,.983-.024a1.51,1.51,0,0,0,.307-.119v-1.2q0-25.826-.009-51.65c-.005-4.107,1.69-7.178,5.424-8.9a10.32,10.32,0,0,1,4.172-.891q26.956-.087,53.913-.031a9.276,9.276,0,0,1,9.62,9.51c.064,2.884.025,5.771.007,8.657-.01,1.571-.572,2.106-2.163,2.109q-5.854.011-11.707,0Zm-54.646,42.537h1.4q21.5,0,43,0a6.719,6.719,0,0,1,1.366.109,1.511,1.511,0,0,1,1.257,1.444,1.553,1.553,0,0,1-1.037,1.71,3.8,3.8,0,0,1-1.052.186,5.61,5.61,0,0,0-4.94,3.51,5.564,5.564,0,0,0,.937,6.154,5.552,5.552,0,0,0,5.768,1.855,5.747,5.747,0,0,0,4.493-6q.006-30.846.006-61.691a6.834,6.834,0,0,1,.109-1.857c.463-1.6,1.031-3.179,1.556-4.76-.068,0-.323-.03-.577-.03-15.349,0-30.7.036-46.047-.029a6.143,6.143,0,0,0-6.261,6.328c.053,17.317.024,34.634.024,51.951Zm38.083,3.447h-16q-13.571,0-27.142.009a5.773,5.773,0,0,0-5.772,5.837,5.784,5.784,0,0,0,6.073,5.831q21,.029,41.991.005a7.492,7.492,0,0,0,.792-.091C-951.155-529.582-951.139-533.368-948.49-537.306Zm28.25-49.416c0-2.657.026-5.212-.007-7.766a5.808,5.808,0,0,0-5.1-5.589c-3.2-.268-6.122,1.618-6.43,4.6a85.863,85.863,0,0,0-.064,8.754Z" transform="translate(1000.872 603.582)" fill="#00ccf2"/>
    <path id="Trazado_173" data-name="Trazado 173" d="M-904.958-402.92q8.752,0,17.5,0a5.225,5.225,0,0,1,1.076.059,1.612,1.612,0,0,1,1.4,1.652,1.6,1.6,0,0,1-1.376,1.671,4.539,4.539,0,0,1-.975.074q-17.6.005-35.2,0c-1.474,0-2.232-.524-2.309-1.573-.085-1.146.656-1.871,1.987-1.882,2.163-.018,4.327-.005,6.49-.005Z" transform="translate(944.835 455.678)" fill="#00ccf2"/>
    <path id="Trazado_174" data-name="Trazado 174" d="M-904.846-445.7q8.8,0,17.6.009a3.52,3.52,0,0,1,1.335.213,1.5,1.5,0,0,1,.919,1.679,1.545,1.545,0,0,1-1.375,1.449,7.254,7.254,0,0,1-1.078.051q-17.5,0-35,0a7.714,7.714,0,0,1-.883-.029,1.587,1.587,0,0,1-1.518-1.616,1.659,1.659,0,0,1,1.422-1.726,6.1,6.1,0,0,1,.981-.029Z" transform="translate(944.836 487.213)" fill="#00ccf2"/>
    <path id="Trazado_175" data-name="Trazado 175" d="M-880.833-537.494a7.755,7.755,0,0,1-1.513-1.221,1.566,1.566,0,0,1,.2-1.915q2.115-2.9,4.228-5.8,4.723-6.469,9.449-12.936a7.645,7.645,0,0,1,.481-.622,1.683,1.683,0,0,1,2.293-.319,1.678,1.678,0,0,1,.454,2.267,5.042,5.042,0,0,1-.332.487q-6.841,9.366-13.7,18.72A9.7,9.7,0,0,1-880.833-537.494Z" transform="translate(913.691 571.914)" fill="#00ccf2"/>
    <path id="Trazado_176" data-name="Trazado 176" d="M-884.15-559.024a6.761,6.761,0,0,1-1.955,4.748,4.535,4.535,0,0,1-6.37.076,6.825,6.825,0,0,1,.035-9.669,4.6,4.6,0,0,1,7.009.871A7.228,7.228,0,0,1-884.15-559.024Zm-3.367-.021a9.271,9.271,0,0,0-.578-1.775,1.309,1.309,0,0,0-2.461-.034,3.278,3.278,0,0,0-.086,3.455c.258.451.875,1,1.293.975a2.337,2.337,0,0,0,1.373-1.032A5.125,5.125,0,0,0-887.517-559.046Z" transform="translate(922.44 575.226)" fill="#00ccf2"/>
    <path id="Trazado_177" data-name="Trazado 177" d="M-842.7-509.611a6.485,6.485,0,0,1,1.463-4.2,4.583,4.583,0,0,1,7.06-.3,6.834,6.834,0,0,1,.074,9.056,4.579,4.579,0,0,1-7.185-.282A6.617,6.617,0,0,1-842.7-509.611Zm6.962.051a9.933,9.933,0,0,0-.64-1.841c-.646-1.11-1.694-1.083-2.415-.008a3.678,3.678,0,0,0,0,3.731,1.316,1.316,0,0,0,2.465-.095A10.415,10.415,0,0,0-835.735-509.56Z" transform="translate(884.282 538.752)" fill="#00ccf2"/>
  </g>
</svg>
