<svg xmlns="http://www.w3.org/2000/svg" width="79.779" height="79.777" viewBox="0 0 79.779 79.777">
  <g id="Grupo_588" data-name="Grupo 588" transform="translate(0 0)">
    <path id="Trazado_161" data-name="Trazado 161" d="M-203.21-525.678c.753.155,1.513.285,2.259.469,7.29,1.8,12.333,6.218,14.648,13.331s.854,13.674-4.056,19.365a18.759,18.759,0,0,1-10.826,6.284,19.417,19.417,0,0,1-17.224-4.581,19.067,19.067,0,0,1-6.309-10.728,19.336,19.336,0,0,1,3.194-15.67,19.538,19.538,0,0,1,12.154-8.041c.7-.155,1.406-.286,2.109-.428Zm-2.991,31.967a13.481,13.481,0,0,0,.19,2.136,1.149,1.149,0,0,0,.851.71c.3,0,.619-.432.867-.727.114-.135.093-.4.1-.6.032-.567-.166-1.343.128-1.646.332-.342,1.1-.255,1.682-.361,4.01-.734,6.708-3.066,6.341-7.469a5.209,5.209,0,0,0-2.763-4.575,34.935,34.935,0,0,0-4.7-1.748c-.5-.163-.724-.3-.7-.868.049-1.191.015-2.386.015-3.58v-2.02a4.086,4.086,0,0,1,3.06,1.373c.49.535.924,1.124,1.438,1.633a1.8,1.8,0,0,0,2.217.346,1.753,1.753,0,0,0,1.079-1.958,4.417,4.417,0,0,0-.993-2.026,7,7,0,0,0-2.357-1.58c-1.4-.555-2.888-.89-4.445-1.349,0-.341.014-.83,0-1.319-.023-.642-.21-1.21-.945-1.318-.549-.08-.986.51-1.017,1.324-.019.507,0,1.015,0,1.458a1.228,1.228,0,0,1-.189.094c-.18.017-.362.027-.542.047a8.436,8.436,0,0,0-5.569,2.6c-1.945,2.119-2.4,6.55.894,8.85a12.316,12.316,0,0,0,4.713,1.9c.546.11.715.3.7.853-.036,1.868-.012,3.736-.016,5.6a5.624,5.624,0,0,1-.058.576,3.487,3.487,0,0,1-3.748-2.378c-.18-.428-.334-.871-.552-1.278a2.137,2.137,0,0,0-2.619-.964,1.784,1.784,0,0,0-1.306,1.963,5.455,5.455,0,0,0,3.5,4.835A35.907,35.907,0,0,0-206.2-493.711Z" transform="translate(245.139 525.678)" fill="#02b750"/>
    <path id="Trazado_162" data-name="Trazado 162" d="M.778-324.735a3.918,3.918,0,0,1-2.75,2.689,5.06,5.06,0,0,1-1.074.109q-4.2.013-8.4,0a3.668,3.668,0,0,1-3.94-3.929c-.021-2.464,0-4.928,0-7.392q0-15.8,0-31.59a4.136,4.136,0,0,1,1.2-3.247,3.924,3.924,0,0,1,2.78-1c2.749-.012,5.5,0,8.247-.006a4.025,4.025,0,0,1,3.95,2.777Z" transform="translate(79.001 401.68)" fill="#02b750"/>
    <path id="Trazado_163" data-name="Trazado 163" d="M-321.033-345.553q0-9.772,0-19.544a3.7,3.7,0,0,1,4.015-4.02q4.049-.02,8.1,0a3.757,3.757,0,0,1,4.054,4.1q.008,19.5.011,39.01a3.834,3.834,0,0,1-4.066,4.083c-2.7-.1-5.4-.108-8.1,0a3.863,3.863,0,0,1-4.047-4.081C-320.975-332.523-321.033-339.039-321.033-345.553Z" transform="translate(321.063 401.702)" fill="#02b750"/>
    <path id="Trazado_164" data-name="Trazado 164" d="M-101.085-298.659c0,4.7-.056,9.394.024,14.089a3.868,3.868,0,0,1-4.073,4.067c-2.772-.107-5.552-.019-8.328-.027a3.618,3.618,0,0,1-3.795-3.754q-.026-14.362,0-28.724a3.659,3.659,0,0,1,3.782-3.794c2.828-.023,5.657-.015,8.485,0a3.676,3.676,0,0,1,3.9,3.9Q-101.076-305.782-101.085-298.659Z" transform="translate(159.675 360.276)" fill="#02b750"/>
    <path id="Trazado_165" data-name="Trazado 165" d="M-219.092-298.652q0-7.006,0-14.012c0-2.654,1.478-4.118,4.155-4.121s5.345-.006,8.018,0a3.709,3.709,0,0,1,4,3.97q.01,14.167,0,28.335a3.675,3.675,0,0,1-3.973,3.973q-4.126,0-8.251,0a3.656,3.656,0,0,1-3.953-3.979Q-219.1-291.568-219.092-298.652Z" transform="translate(240.311 360.253)" fill="#02b750"/>
    <path id="Trazado_166" data-name="Trazado 166" d="M-124.053-413.907v-6.4c2.468.2,4.125,1.579,4.037,3.341C-120.1-415.225-121.794-413.915-124.053-413.907Z" transform="translate(165.046 442.229)" fill="#02b750"/>
    <path id="Trazado_167" data-name="Trazado 167" d="M-147.963-465.768c-2.624-.57-3.843-1.653-3.665-3.215.17-1.488,1.756-2.636,3.665-2.619Z" transform="translate(186.896 482.855)" fill="#02b750"/>
  </g>
</svg>
