<?xml version="1.0" encoding="utf-8"?>
<!-- Generator: Adobe Illustrator 27.7.0, SVG Export Plug-In . SVG Version: 6.00 Build 0)  -->
<svg version="1.1" id="Capa_1" xmlns="http://www.w3.org/2000/svg" xmlns:xlink="http://www.w3.org/1999/xlink" x="0px" y="0px"
	 viewBox="0 0 61.66 44.22" style="enable-background:new 0 0 61.66 44.22;" xml:space="preserve">
<style type="text/css">
	.st0{opacity:0.13;}
	.st1{fill:#818387;}
	.st2{fill:url(#Trazado_325-4_00000153704339452799795310000012137966464155077045_);}
	.st3{fill:#20507A;}
	.st4{fill:url(#Trazado_327-4_00000035528116772680451420000001978654908934504870_);}
	.st5{fill:url(#Trazado_329-4_00000053514719708436933830000012021260494949412748_);}
	.st6{fill:url(#Trazado_331-4_00000009591528691910816320000001478463184188359344_);}
	.st7{fill:url(#Trazado_333-4_00000054246780721000879650000006948300296008425111_);}
	.st8{fill:url(#Trazado_335-4_00000091706036928810589830000006567986837544070528_);}
	.st9{fill:url(#Trazado_325-5_00000148622836083288433770000003323735815133215636_);}
	.st10{fill:url(#Trazado_327-5_00000024722984414085644280000016460112806668144031_);}
	.st11{fill:url(#Trazado_329-5_00000028303228368806674840000016223538994165266621_);}
	.st12{fill:url(#Trazado_331-5_00000087383885611395068650000002580195600749820320_);}
	.st13{fill:url(#Trazado_333-5_00000013910836385106781180000010998210031612974502_);}
	.st14{fill:#006B85;}
	.st15{fill:url(#Trazado_325_00000065054860230981490300000010000663779446800521_);}
</style>
<g id="Grupo_609" transform="translate(1276.179 84)">
	<g id="Grupo_605-4" transform="translate(0.001 3.13)" class="st0">
		<path id="Trazado_312-4" class="st1" d="M-231.11-77.23c0,6.93,6.91,12.61,15.35,12.61s15.35-5.67,15.35-12.61v-31.06h-30.71
			V-77.23z"/>
		<path id="Trazado_313-4" class="st1" d="M-200.4-77.23c0,6.93,6.91,12.61,15.35,12.61s15.35-5.67,15.35-12.61v-31.06h-30.71
			V-77.23z"/>
		<path id="Trazado_314-4" class="st1" d="M-169.7-77.23c0,6.93,6.91,12.61,15.35,12.61s15.35-5.67,15.35-12.61v-31.06h-30.71
			V-77.23z"/>
		<path id="Trazado_315-4" class="st1" d="M-138.99-77.23c0,6.93,6.91,12.61,15.35,12.61s15.35-5.67,15.35-12.61v-31.06h-30.71
			V-77.23z"/>
		<path id="Trazado_316-4" class="st1" d="M-108.29-77.23c0,6.93,6.91,12.61,15.35,12.61s15.35-5.67,15.35-12.61v-31.06h-30.7
			V-77.23z"/>
		<path id="Trazado_317-4" class="st1" d="M-77.58-77.23c0,6.93,6.91,12.61,15.35,12.61s15.35-5.67,15.35-12.61v-31.06h-30.71
			V-77.23z"/>
		<path id="Trazado_318-4" class="st1" d="M-46.88-77.23c0,6.93,6.91,12.61,15.35,12.61s15.35-5.67,15.35-12.61v-31.06h-30.71
			V-77.23z"/>
		<path id="Trazado_319-4" class="st1" d="M-16.17-77.23c0,6.93,6.91,12.61,15.35,12.61s15.35-5.67,15.35-12.61v-31.06h-30.71
			V-77.23z"/>
		<path id="Trazado_320-4" class="st1" d="M14.53-77.23c0,6.93,6.91,12.61,15.35,12.61s15.35-5.67,15.35-12.61v-31.06H14.53V-77.23z
			"/>
		<path id="Trazado_321-4" class="st1" d="M45.24-77.23c0,6.93,6.91,12.61,15.35,12.61s15.35-5.67,15.35-12.61v-31.06H45.24V-77.23z
			"/>
		<path id="Trazado_322-4" class="st1" d="M75.94-77.23c0,6.93,6.91,12.61,15.35,12.61s15.35-5.67,15.35-12.61v-31.06H75.94V-77.23z
			"/>
		<path id="Trazado_323-4" class="st1" d="M106.65-77.23c0,6.93,6.91,12.61,15.35,12.61s15.35-5.67,15.35-12.61v-31.06h-30.71
			V-77.23z"/>
	</g>
	
		<linearGradient id="Trazado_325-4_00000057832144669034345840000008587574939522813590_" gradientUnits="userSpaceOnUse" x1="-1441.2264" y1="639.2166" x2="-1441.2264" y2="640.2166" gradientTransform="matrix(30.706 0 0 -43.669 44038.5312 27850.7715)">
		<stop  offset="0" style="stop-color:#FFFFFF"/>
		<stop  offset="0.8" style="stop-color:#AFB0B2"/>
		<stop  offset="0.994" style="stop-color:#FFFFFF"/>
	</linearGradient>
	<path id="Trazado_325-4" style="fill:url(#Trazado_325-4_00000057832144669034345840000008587574939522813590_);" d="
		M-231.11-75.79c0,6.93,6.91,12.61,15.35,12.61s15.35-5.67,15.35-12.61v-31.06h-30.71V-75.79z"/>
	<path id="Trazado_326-4" class="st3" d="M-200.4-77.23c0,6.93,6.91,12.61,15.35,12.61s15.35-5.67,15.35-12.61v-31.06h-30.71V-77.23
		z"/>
	
		<linearGradient id="Trazado_327-4_00000067917698513705572600000006877892556015404172_" gradientUnits="userSpaceOnUse" x1="-1441.2264" y1="639.2166" x2="-1441.2264" y2="640.2166" gradientTransform="matrix(30.706 0 0 -43.669 44099.9453 27850.7715)">
		<stop  offset="0" style="stop-color:#FFFFFF"/>
		<stop  offset="0.8" style="stop-color:#AFB0B2"/>
		<stop  offset="0.994" style="stop-color:#FFFFFF"/>
	</linearGradient>
	<path id="Trazado_327-4" style="fill:url(#Trazado_327-4_00000067917698513705572600000006877892556015404172_);" d="M-169.7-75.79
		c0,6.93,6.91,12.61,15.35,12.61s15.35-5.67,15.35-12.61v-31.06h-30.71V-75.79z"/>
	<path id="Trazado_328-4" class="st3" d="M-138.99-77.23c0,6.93,6.91,12.61,15.35,12.61s15.35-5.67,15.35-12.61v-31.06h-30.71
		V-77.23z"/>
	
		<linearGradient id="Trazado_329-4_00000102511776568239026170000004877681155737557682_" gradientUnits="userSpaceOnUse" x1="-1441.2264" y1="639.2166" x2="-1441.2264" y2="640.2166" gradientTransform="matrix(30.706 0 0 -43.669 44161.3555 27850.7715)">
		<stop  offset="0" style="stop-color:#FFFFFF"/>
		<stop  offset="0.8" style="stop-color:#AFB0B2"/>
		<stop  offset="0.994" style="stop-color:#FFFFFF"/>
	</linearGradient>
	<path id="Trazado_329-4" style="fill:url(#Trazado_329-4_00000102511776568239026170000004877681155737557682_);" d="
		M-108.29-75.79c0,6.93,6.91,12.61,15.35,12.61s15.35-5.67,15.35-12.61v-31.06h-30.71V-75.79z"/>
	<path id="Trazado_330-4" class="st3" d="M-77.58-77.23c0,6.93,6.91,12.61,15.35,12.61s15.35-5.67,15.35-12.61v-31.06h-30.71V-77.23
		z"/>
	
		<linearGradient id="Trazado_331-4_00000138570510648221353550000006963241468191841448_" gradientUnits="userSpaceOnUse" x1="-1441.2264" y1="639.2166" x2="-1441.2264" y2="640.2166" gradientTransform="matrix(30.706 0 0 -43.669 44222.7695 27850.7715)">
		<stop  offset="0" style="stop-color:#FFFFFF"/>
		<stop  offset="0.8" style="stop-color:#AFB0B2"/>
		<stop  offset="0.994" style="stop-color:#FFFFFF"/>
	</linearGradient>
	<path id="Trazado_331-4" style="fill:url(#Trazado_331-4_00000138570510648221353550000006963241468191841448_);" d="M-46.88-75.79
		c0,6.93,6.91,12.61,15.35,12.61s15.35-5.67,15.35-12.61v-31.06h-30.71V-75.79z"/>
	<path id="Trazado_332-4" class="st3" d="M-16.17-77.23c0,6.93,6.91,12.61,15.35,12.61s15.35-5.67,15.35-12.61v-31.06h-30.71V-77.23
		z"/>
	
		<linearGradient id="Trazado_333-4_00000094615883625421053870000005934868102160754106_" gradientUnits="userSpaceOnUse" x1="-1441.2264" y1="639.2166" x2="-1441.2264" y2="640.2166" gradientTransform="matrix(30.706 0 0 -43.669 44284.1758 27850.7715)">
		<stop  offset="0" style="stop-color:#FFFFFF"/>
		<stop  offset="0.8" style="stop-color:#AFB0B2"/>
		<stop  offset="0.994" style="stop-color:#FFFFFF"/>
	</linearGradient>
	<path id="Trazado_333-4" style="fill:url(#Trazado_333-4_00000094615883625421053870000005934868102160754106_);" d="M14.53-75.79
		c0,6.93,6.91,12.61,15.35,12.61s15.35-5.67,15.35-12.61v-31.06H14.53V-75.79z"/>
	<path id="Trazado_334-4" class="st3" d="M45.24-77.23c0,6.93,6.91,12.61,15.35,12.61s15.35-5.67,15.35-12.61v-31.06H45.24V-77.23z"
		/>
	
		<linearGradient id="Trazado_335-4_00000148649604264525506520000006295187898104243591_" gradientUnits="userSpaceOnUse" x1="-1441.2264" y1="639.2166" x2="-1441.2264" y2="640.2166" gradientTransform="matrix(30.7061 0 0 -43.669 44345.6758 27850.7715)">
		<stop  offset="0" style="stop-color:#FFFFFF"/>
		<stop  offset="0.8" style="stop-color:#AFB0B2"/>
		<stop  offset="0.994" style="stop-color:#FFFFFF"/>
	</linearGradient>
	<path id="Trazado_335-4" style="fill:url(#Trazado_335-4_00000148649604264525506520000006295187898104243591_);" d="M75.95-75.79
		c0,6.93,6.91,12.61,15.35,12.61s15.35-5.67,15.35-12.61v-31.06H75.95V-75.79z"/>
	<path id="Trazado_336-4" class="st3" d="M106.65-77.23c0,6.93,6.91,12.61,15.35,12.61s15.35-5.67,15.35-12.61v-31.06h-30.71V-77.23
		z"/>
</g>
<g id="Grupo_610" transform="translate(1644.648 84)">
	<g id="Grupo_605-5" transform="translate(0.001 3.13)" class="st0">
		<path id="Trazado_312-5" class="st1" d="M-231.11-77.23c0,6.93,6.91,12.61,15.35,12.61s15.35-5.67,15.35-12.61v-31.06h-30.71
			V-77.23z"/>
		<path id="Trazado_313-5" class="st1" d="M-200.4-77.23c0,6.93,6.91,12.61,15.35,12.61s15.35-5.67,15.35-12.61v-31.06h-30.71
			V-77.23z"/>
		<path id="Trazado_314-5" class="st1" d="M-169.7-77.23c0,6.93,6.91,12.61,15.35,12.61s15.35-5.67,15.35-12.61v-31.06h-30.71
			V-77.23z"/>
		<path id="Trazado_315-5" class="st1" d="M-138.99-77.23c0,6.93,6.91,12.61,15.35,12.61s15.35-5.67,15.35-12.61v-31.06h-30.71
			V-77.23z"/>
		<path id="Trazado_316-5" class="st1" d="M-108.29-77.23c0,6.93,6.91,12.61,15.35,12.61s15.35-5.67,15.35-12.61v-31.06h-30.7
			V-77.23z"/>
		<path id="Trazado_317-5" class="st1" d="M-77.58-77.23c0,6.93,6.91,12.61,15.35,12.61s15.35-5.67,15.35-12.61v-31.06h-30.71
			V-77.23z"/>
		<path id="Trazado_318-5" class="st1" d="M-46.88-77.23c0,6.93,6.91,12.61,15.35,12.61s15.35-5.67,15.35-12.61v-31.06h-30.71
			V-77.23z"/>
		<path id="Trazado_319-5" class="st1" d="M-16.17-77.23c0,6.93,6.91,12.61,15.35,12.61s15.35-5.67,15.35-12.61v-31.06h-30.71
			V-77.23z"/>
		<path id="Trazado_320-5" class="st1" d="M14.53-77.23c0,6.93,6.91,12.61,15.35,12.61s15.35-5.67,15.35-12.61v-31.06H14.53V-77.23z
			"/>
		<path id="Trazado_321-5" class="st1" d="M45.24-77.23c0,6.93,6.91,12.61,15.35,12.61s15.35-5.67,15.35-12.61v-31.06H45.24V-77.23z
			"/>
		<path id="Trazado_322-5" class="st1" d="M75.94-77.23c0,6.93,6.91,12.61,15.35,12.61s15.35-5.67,15.35-12.61v-31.06H75.94V-77.23z
			"/>
		<path id="Trazado_323-5" class="st1" d="M106.65-77.23c0,6.93,6.91,12.61,15.35,12.61s15.35-5.67,15.35-12.61v-31.06h-30.71
			V-77.23z"/>
	</g>
	
		<linearGradient id="Trazado_325-5_00000121996080592127026480000006953803380846392213_" gradientUnits="userSpaceOnUse" x1="-1809.6954" y1="639.2166" x2="-1809.6954" y2="640.2166" gradientTransform="matrix(30.706 0 0 -43.669 55352.7383 27850.7715)">
		<stop  offset="0" style="stop-color:#FFFFFF"/>
		<stop  offset="0.8" style="stop-color:#AFB0B2"/>
		<stop  offset="0.994" style="stop-color:#FFFFFF"/>
	</linearGradient>
	<path id="Trazado_325-5" style="fill:url(#Trazado_325-5_00000121996080592127026480000006953803380846392213_);" d="
		M-231.11-75.79c0,6.93,6.91,12.61,15.35,12.61s15.35-5.67,15.35-12.61v-31.06h-30.71V-75.79z"/>
	<path id="Trazado_326-5" class="st3" d="M-200.4-77.23c0,6.93,6.91,12.61,15.35,12.61s15.35-5.67,15.35-12.61v-31.06h-30.71V-77.23
		z"/>
	
		<linearGradient id="Trazado_327-5_00000134242890838152612800000005219608600894681014_" gradientUnits="userSpaceOnUse" x1="-1809.6954" y1="639.2166" x2="-1809.6954" y2="640.2166" gradientTransform="matrix(30.706 0 0 -43.669 55414.1523 27850.7715)">
		<stop  offset="0" style="stop-color:#FFFFFF"/>
		<stop  offset="0.8" style="stop-color:#AFB0B2"/>
		<stop  offset="0.994" style="stop-color:#FFFFFF"/>
	</linearGradient>
	<path id="Trazado_327-5" style="fill:url(#Trazado_327-5_00000134242890838152612800000005219608600894681014_);" d="M-169.7-75.79
		c0,6.93,6.91,12.61,15.35,12.61s15.35-5.67,15.35-12.61v-31.06h-30.71V-75.79z"/>
	<path id="Trazado_328-5" class="st3" d="M-138.99-77.23c0,6.93,6.91,12.61,15.35,12.61s15.35-5.67,15.35-12.61v-31.06h-30.71
		V-77.23z"/>
	
		<linearGradient id="Trazado_329-5_00000165921548235171200940000000139754097511307423_" gradientUnits="userSpaceOnUse" x1="-1809.6954" y1="639.2166" x2="-1809.6954" y2="640.2166" gradientTransform="matrix(30.706 0 0 -43.669 55475.5625 27850.7715)">
		<stop  offset="0" style="stop-color:#FFFFFF"/>
		<stop  offset="0.8" style="stop-color:#AFB0B2"/>
		<stop  offset="0.994" style="stop-color:#FFFFFF"/>
	</linearGradient>
	<path id="Trazado_329-5" style="fill:url(#Trazado_329-5_00000165921548235171200940000000139754097511307423_);" d="
		M-108.29-75.79c0,6.93,6.91,12.61,15.35,12.61s15.35-5.67,15.35-12.61v-31.06h-30.71V-75.79z"/>
	<path id="Trazado_330-5" class="st3" d="M-77.58-77.23c0,6.93,6.91,12.61,15.35,12.61s15.35-5.67,15.35-12.61v-31.06h-30.71V-77.23
		z"/>
	
		<linearGradient id="Trazado_331-5_00000108298299069478548010000012531621855985141911_" gradientUnits="userSpaceOnUse" x1="-1809.6954" y1="639.2166" x2="-1809.6954" y2="640.2166" gradientTransform="matrix(30.706 0 0 -43.669 55536.9727 27850.7715)">
		<stop  offset="0" style="stop-color:#FFFFFF"/>
		<stop  offset="0.8" style="stop-color:#AFB0B2"/>
		<stop  offset="0.994" style="stop-color:#FFFFFF"/>
	</linearGradient>
	<path id="Trazado_331-5" style="fill:url(#Trazado_331-5_00000108298299069478548010000012531621855985141911_);" d="M-46.88-75.79
		c0,6.93,6.91,12.61,15.35,12.61s15.35-5.67,15.35-12.61v-31.06h-30.71V-75.79z"/>
	<path id="Trazado_332-5" class="st3" d="M-16.17-77.23c0,6.93,6.91,12.61,15.35,12.61s15.35-5.67,15.35-12.61v-31.06h-30.71V-77.23
		z"/>
	
		<linearGradient id="Trazado_333-5_00000168817456958008951160000016278163298591296900_" gradientUnits="userSpaceOnUse" x1="-1809.6954" y1="639.2166" x2="-1809.6954" y2="640.2166" gradientTransform="matrix(30.706 0 0 -43.669 55598.3828 27850.7715)">
		<stop  offset="0" style="stop-color:#FFFFFF"/>
		<stop  offset="0.8" style="stop-color:#AFB0B2"/>
		<stop  offset="0.994" style="stop-color:#FFFFFF"/>
	</linearGradient>
	<path id="Trazado_333-5" style="fill:url(#Trazado_333-5_00000168817456958008951160000016278163298591296900_);" d="M14.53-75.79
		c0,6.93,6.91,12.61,15.35,12.61s15.35-5.67,15.35-12.61v-31.06H14.53V-75.79z"/>
	<path id="Trazado_336-5" class="st3" d="M106.65-77.23c0,6.93,6.91,12.61,15.35,12.61s15.35-5.67,15.35-12.61v-31.06h-30.71V-77.23
		z"/>
</g>
<g>
	<path id="Trazado_324_00000061448260217294752530000008210324643497506708_" class="st14" d="M0.25,31.17
		c0,6.93,6.91,13.05,15.35,13.05s15.35-6.12,15.35-13.05l0-30.62l-30.7,0L0.25,31.17z"/>
	
		<linearGradient id="Trazado_325_00000092454568152336482270000017418065570767169708_" gradientUnits="userSpaceOnUse" x1="-162.1048" y1="722.6807" x2="-162.1048" y2="723.6807" gradientTransform="matrix(30.706 0 0 -43.669 5023.896 31602.9688)">
		<stop  offset="0" style="stop-color:#F2F2F2"/>
		<stop  offset="0.8" style="stop-color:#AFB0B2"/>
		<stop  offset="0.994" style="stop-color:#FFFFFF"/>
	</linearGradient>
	
		<path id="Trazado_325_00000049190106614662073710000018329457259707164592_" style="fill:url(#Trazado_325_00000092454568152336482270000017418065570767169708_);" d="
		M30.96,31.61c0,6.93,6.91,12.61,15.35,12.61s15.35-5.67,15.35-12.61V0.55H30.96V31.61z"/>
</g>
</svg>
