<?xml version="1.0" encoding="utf-8"?>
<!-- Generator: Adobe Illustrator 24.3.0, SVG Export Plug-In . SVG Version: 6.00 Build 0)  -->
<svg version="1.1" id="Ñëîé_1" xmlns="http://www.w3.org/2000/svg" xmlns:xlink="http://www.w3.org/1999/xlink" x="0px" y="0px"
	 viewBox="0 0 150 109.4" style="enable-background:new 0 0 150 109.4;" xml:space="preserve">
<style type="text/css">
	.st0{opacity:0.5;fill:#242993;enable-background:new    ;}
	.st1{fill:#42FFFF;}
	.st2{fill:url(#SVGID_1_);}
	.st3{fill:url(#SVGID_2_);}
	.st4{fill:#242993;}
	.st5{fill:#4553C7;}
	.st6{fill:url(#SVGID_3_);}
	.st7{fill:url(#SVGID_4_);}
	.st8{fill:url(#SVGID_5_);}
	.st9{opacity:0.4;fill:#42FFFF;enable-background:new    ;}
	.st10{fill:url(#SVGID_6_);}
	.st11{fill:url(#SVGID_7_);}
	.st12{fill:url(#SVGID_8_);}
	.st13{fill:url(#SVGID_9_);}
	.st14{opacity:0.51;}
	.st15{fill:url(#SVGID_10_);}
	.st16{fill:url(#SVGID_11_);}
	.st17{fill:#2859CB;}
	.st18{fill:#ADC8FF;}
	.st19{fill:#91AFFF;}
	.st20{fill:url(#SVGID_12_);}
	.st21{opacity:0.11;}
	.st22{clip-path:url(#SVGID_14_);}
	.st23{fill:url(#SVGID_15_);}
	.st24{fill:url(#SVGID_16_);}
	.st25{opacity:0.42;fill:url(#SVGID_17_);enable-background:new    ;}
	.st26{opacity:0.42;fill:url(#SVGID_18_);enable-background:new    ;}
	.st27{opacity:0.5;fill:#42FFFF;enable-background:new    ;}
	.st28{fill:url(#SVGID_19_);}
	.st29{fill:url(#SVGID_20_);}
	.st30{opacity:0.6;fill:#242993;enable-background:new    ;}
	.st31{opacity:0.96;fill:url(#SVGID_21_);enable-background:new    ;}
	.st32{opacity:0.8;fill:#4553C7;enable-background:new    ;}
	.st33{opacity:0.32;}
	.st34{fill:#88FFF3;}
</style>
<g>
	<g>
		<path class="st0" d="M24.1,61.9l-11.8-6.8c-0.2-0.1-0.2-0.3,0.1-0.5l11.7-6.7c0.2-0.1,0.6-0.1,0.8,0l11.8,6.8
			c0.2,0.1,0.2,0.3-0.1,0.5l-11.7,6.7C24.7,62,24.3,62,24.1,61.9z"/>
		<path class="st1" d="M24.4,65.3c-0.2,0-0.4,0-0.6-0.1L6.7,55.3c-0.2-0.1-0.3-0.2-0.3-0.4c0-0.2,0.1-0.4,0.3-0.5l17.1-9.8
			c0.4-0.2,0.9-0.2,1.3,0l17.2,9.9c0.2,0.1,0.3,0.2,0.3,0.4c0,0.2-0.1,0.4-0.3,0.5l-17.1,9.8C24.9,65.3,24.7,65.3,24.4,65.3z M24,65
			c0.3,0.1,0.7,0.1,1,0l17.1-9.8c0.1-0.1,0.2-0.2,0.2-0.3c0-0.1-0.1-0.1-0.1-0.2l-17.2-9.9c-0.3-0.1-0.7-0.1-1,0L6.9,54.6
			c-0.1,0.1-0.2,0.2-0.2,0.3C6.7,55,6.7,55,6.8,55L24,65z"/>
		<g>
			
				<linearGradient id="SVGID_1_" gradientUnits="userSpaceOnUse" x1="31.4996" y1="144.0699" x2="12.3779" y2="128.7365" gradientTransform="matrix(1 0 0 -1 0 187.3937)">
				<stop  offset="0" style="stop-color:#BCD5FF"/>
				<stop  offset="0.151" style="stop-color:#A3BEFF"/>
				<stop  offset="0.3866" style="stop-color:#82A0FF"/>
				<stop  offset="0.6124" style="stop-color:#6A8AFF"/>
				<stop  offset="0.8221" style="stop-color:#5C7DFF"/>
				<stop  offset="1" style="stop-color:#5778FF"/>
			</linearGradient>
			<path class="st2" d="M36.7,50v-2.3l-3.7,0L24.8,43c-0.2-0.1-0.6-0.1-0.8,0l-8.2,4.7l-3.7,0v2.3h0c0,0.1,0,0.1,0.1,0.2L24.1,57
				c0.2,0.1,0.6,0.1,0.8,0l11.7-6.7C36.7,50.2,36.7,50.1,36.7,50z"/>
			
				<linearGradient id="SVGID_2_" gradientUnits="userSpaceOnUse" x1="-94.9221" y1="-172.1685" x2="-112.3041" y2="-186.1069" gradientTransform="matrix(0.866 0.5 1 -0.5774 289.4847 -3.9477)">
				<stop  offset="0" style="stop-color:#C0D6FF"/>
				<stop  offset="0.2978" style="stop-color:#C5DBFF"/>
				<stop  offset="0.6488" style="stop-color:#D3E9FF"/>
				<stop  offset="1" style="stop-color:#E9FFFF"/>
			</linearGradient>
			<path class="st3" d="M24.1,54.8L12.3,48c-0.2-0.1-0.2-0.3,0.1-0.5l11.7-6.7c0.2-0.1,0.6-0.1,0.8,0l11.8,6.8
				c0.2,0.1,0.2,0.3-0.1,0.5l-11.7,6.7C24.7,54.9,24.3,54.9,24.1,54.8z"/>
			<path class="st4" d="M24.2,54l-10.4-6c-0.2-0.1-0.2-0.3,0.1-0.4l10.3-6c0.2-0.1,0.5-0.1,0.7,0l10.4,6c0.2,0.1,0.2,0.3-0.1,0.4
				l-10.3,6C24.6,54.1,24.3,54.1,24.2,54z"/>
			<path class="st5" d="M24.2,53.5l-9.6-5.5c-0.2-0.1-0.1-0.3,0-0.4l9.5-5.5c0.2-0.1,0.5-0.1,0.6,0l9.6,5.5c0.2,0.1,0.1,0.3,0,0.4
				l-9.5,5.5C24.6,53.6,24.3,53.6,24.2,53.5z"/>
		</g>
		<g>
			<polygon class="st1" points="24.3,47.4 23.1,46.8 23.7,46.4 24.9,47.1 			"/>
			<polygon class="st1" points="26.3,47.3 25.2,48 24.6,47.6 25.7,47 			"/>
			<polygon class="st1" points="24,47.6 23.4,47.9 22.8,47.6 23.4,47.2 			"/>
			<polygon class="st1" points="26.1,48.8 25.5,49.1 23.7,48.1 24.3,47.8 			"/>
		</g>
	</g>
	<g>
		<path class="st0" d="M131.5,75l-11.8-6.8c-0.2-0.1-0.2-0.3,0.1-0.5l11.7-6.7c0.2-0.1,0.6-0.1,0.8,0l11.8,6.8
			c0.2,0.1,0.2,0.3-0.1,0.5L132.3,75C132,75.1,131.7,75.1,131.5,75z"/>
		<path class="st1" d="M131.8,78.1c-0.2,0-0.4,0-0.5-0.1l-16.5-9.5c-0.2-0.1-0.3-0.2-0.3-0.4c0-0.2,0.1-0.3,0.3-0.5l16.3-9.4
			c0.4-0.2,0.9-0.2,1.2,0l16.5,9.5c0.2,0.1,0.3,0.2,0.3,0.4c0,0.2-0.1,0.3-0.3,0.5l-16.3,9.4C132.3,78,132,78.1,131.8,78.1z
			 M131.9,58.2c-0.2,0-0.4,0-0.6,0.1L115,67.8c-0.1,0.1-0.2,0.2-0.2,0.2c0,0.1,0.1,0.1,0.1,0.2l16.5,9.5c0.2,0.1,0.7,0.1,1,0
			l16.3-9.4c0.1-0.1,0.2-0.2,0.2-0.2c0-0.1-0.1-0.1-0.1-0.2l-16.5-9.5C132.2,58.2,132,58.2,131.9,58.2z"/>
		<g>
			
				<linearGradient id="SVGID_3_" gradientUnits="userSpaceOnUse" x1="138.8649" y1="130.5999" x2="119.7432" y2="115.2664" gradientTransform="matrix(1 0 0 -1 0 187.3937)">
				<stop  offset="0" style="stop-color:#BCD5FF"/>
				<stop  offset="0.151" style="stop-color:#A3BEFF"/>
				<stop  offset="0.3866" style="stop-color:#82A0FF"/>
				<stop  offset="0.6124" style="stop-color:#6A8AFF"/>
				<stop  offset="0.8221" style="stop-color:#5C7DFF"/>
				<stop  offset="1" style="stop-color:#5778FF"/>
			</linearGradient>
			<path class="st6" d="M144.1,63.5v-2.3l-3.7,0l-8.2-4.7c-0.2-0.1-0.6-0.1-0.8,0l-8.2,4.7l-3.7,0v2.3h0c0,0.1,0,0.1,0.1,0.2
				l11.8,6.8c0.2,0.1,0.6,0.1,0.8,0l11.7-6.7C144,63.7,144.1,63.6,144.1,63.5z"/>
			
				<linearGradient id="SVGID_4_" gradientUnits="userSpaceOnUse" x1="-19.461" y1="-130.1526" x2="-36.843" y2="-144.0911" gradientTransform="matrix(0.866 0.5 1 -0.5774 289.4847 -3.9477)">
				<stop  offset="0" style="stop-color:#C0D6FF"/>
				<stop  offset="0.2978" style="stop-color:#C5DBFF"/>
				<stop  offset="0.6488" style="stop-color:#D3E9FF"/>
				<stop  offset="1" style="stop-color:#E9FFFF"/>
			</linearGradient>
			<path class="st7" d="M131.5,68.2l-11.8-6.8c-0.2-0.1-0.2-0.3,0.1-0.5l11.7-6.7c0.2-0.1,0.6-0.1,0.8,0L144,61
				c0.2,0.1,0.2,0.3-0.1,0.5l-11.7,6.7C132,68.3,131.7,68.4,131.5,68.2z"/>
			
				<linearGradient id="SVGID_5_" gradientUnits="userSpaceOnUse" x1="-19.461" y1="-130.1526" x2="-36.843" y2="-144.0911" gradientTransform="matrix(0.866 0.5 1 -0.5774 289.4847 -3.9477)">
				<stop  offset="0" style="stop-color:#C0D6FF"/>
				<stop  offset="0.2978" style="stop-color:#C5DBFF"/>
				<stop  offset="0.6488" style="stop-color:#D3E9FF"/>
				<stop  offset="1" style="stop-color:#E9FFFF"/>
			</linearGradient>
			<path class="st8" d="M131.5,68.2l-11.8-6.8c-0.2-0.1-0.2-0.3,0.1-0.5l11.7-6.7c0.2-0.1,0.6-0.1,0.8,0L144,61
				c0.2,0.1,0.2,0.3-0.1,0.5l-11.7,6.7C132,68.3,131.7,68.4,131.5,68.2z"/>
			<path class="st4" d="M131.5,67.4l-10.4-6c-0.2-0.1-0.2-0.3,0.1-0.4l10.3-6c0.2-0.1,0.5-0.1,0.7,0l10.4,6c0.2,0.1,0.2,0.3-0.1,0.4
				l-10.3,6C132,67.5,131.7,67.5,131.5,67.4z"/>
			<path class="st5" d="M131.5,66.9l-9.6-5.5c-0.2-0.1-0.1-0.3,0-0.4l9.5-5.5c0.2-0.1,0.5-0.1,0.6,0l9.6,5.5c0.2,0.1,0.1,0.3,0,0.4
				l-9.5,5.5C132,67,131.7,67,131.5,66.9z"/>
			<g>
				<polygon class="st1" points="131.6,60.9 130.5,60.2 131.1,59.9 132.2,60.5 				"/>
				<polygon class="st1" points="133.7,60.8 132.6,61.4 132,61.1 133.1,60.4 				"/>
				<polygon class="st1" points="131.4,61 130.8,61.4 130.1,61 130.8,60.7 				"/>
				<polygon class="st1" points="133.5,62.2 132.9,62.6 131.1,61.6 131.7,61.2 				"/>
			</g>
		</g>
		<path class="st9" d="M144.1,58.2l-5,0l-6.9-4c-0.2-0.1-0.6-0.1-0.8,0l-7,4l-4.9,0v2.9l0,0c0,0.1,0.1,0.1,0.1,0.2l11.8,6.8
			c0.2,0.1,0.6,0.1,0.8,0l11.7-6.7c0.1-0.1,0.2-0.1,0.2-0.2l0,0L144.1,58.2L144.1,58.2z"/>
		<g>
			
				<linearGradient id="SVGID_6_" gradientUnits="userSpaceOnUse" x1="138.8648" y1="135.6308" x2="119.7431" y2="120.2974" gradientTransform="matrix(1 0 0 -1 0 187.3937)">
				<stop  offset="0" style="stop-color:#BCD5FF"/>
				<stop  offset="0.151" style="stop-color:#A3BEFF"/>
				<stop  offset="0.3866" style="stop-color:#82A0FF"/>
				<stop  offset="0.6124" style="stop-color:#6A8AFF"/>
				<stop  offset="0.8221" style="stop-color:#5C7DFF"/>
				<stop  offset="1" style="stop-color:#5778FF"/>
			</linearGradient>
			<path class="st10" d="M144.1,58.5v-2.3l-3.7,0l-8.2-4.7c-0.2-0.1-0.6-0.1-0.8,0l-8.2,4.7l-3.7,0v2.3h0c0,0.1,0,0.1,0.1,0.2
				l11.8,6.8c0.2,0.1,0.6,0.1,0.8,0l11.7-6.7C144,58.6,144.1,58.6,144.1,58.5z"/>
			
				<linearGradient id="SVGID_7_" gradientUnits="userSpaceOnUse" x1="-24.4919" y1="-125.7958" x2="-41.8739" y2="-139.7342" gradientTransform="matrix(0.866 0.5 1 -0.5774 289.4847 -3.9477)">
				<stop  offset="0" style="stop-color:#C0D6FF"/>
				<stop  offset="0.2978" style="stop-color:#C5DBFF"/>
				<stop  offset="0.6488" style="stop-color:#D3E9FF"/>
				<stop  offset="1" style="stop-color:#E9FFFF"/>
			</linearGradient>
			<path class="st11" d="M131.5,63.2l-11.8-6.8c-0.2-0.1-0.2-0.3,0.1-0.5l11.7-6.7c0.2-0.1,0.6-0.1,0.8,0L144,56
				c0.2,0.1,0.2,0.3-0.1,0.5l-11.7,6.7C132,63.3,131.7,63.3,131.5,63.2z"/>
			<path class="st4" d="M131.5,62.4l-10.4-6c-0.2-0.1-0.2-0.3,0.1-0.4l10.3-6c0.2-0.1,0.5-0.1,0.7,0l10.4,6c0.2,0.1,0.2,0.3-0.1,0.4
				l-10.3,6C132,62.5,131.7,62.5,131.5,62.4z"/>
			<path class="st5" d="M131.5,61.9l-9.6-5.5c-0.2-0.1-0.1-0.3,0-0.4l9.5-5.5c0.2-0.1,0.5-0.1,0.6,0l9.6,5.5c0.2,0.1,0.1,0.3,0,0.4
				l-9.5,5.5C132,62,131.7,62,131.5,61.9z"/>
			<g>
				<polygon class="st1" points="131.6,55.8 130.5,55.2 131.1,54.8 132.2,55.5 				"/>
				<polygon class="st1" points="133.7,55.8 132.6,56.4 132,56 133.1,55.4 				"/>
				<polygon class="st1" points="131.4,56 130.8,56.3 130.1,56 130.8,55.6 				"/>
				<polygon class="st1" points="133.5,57.2 132.9,57.6 131.1,56.5 131.7,56.2 				"/>
			</g>
		</g>
	</g>
	<path class="st1" d="M106.2,104.9c-0.2,0-0.4,0-0.5-0.1L96,99.2l0.1-0.2l9.7,5.6c0.3,0.1,0.6,0.1,0.8,0l43.2-24.9
		c0.1,0,0.1-0.1,0.1-0.2c0-0.1,0-0.1-0.1-0.2l-9.9-5.7l0.1-0.2l9.9,5.7c0.1,0.1,0.2,0.2,0.2,0.4s-0.1,0.3-0.2,0.4l-43.2,24.9
		C106.5,104.8,106.3,104.9,106.2,104.9z"/>
	<path class="st1" d="M24.5,83.7c-0.2,0-0.5-0.1-0.7-0.2L0.3,69.9c-0.1-0.1-0.2-0.2-0.2-0.4c0-0.1,0.1-0.3,0.2-0.4l15.5-8.9l0.1,0.2
		L0.4,69.5c-0.1,0-0.1,0.1-0.1,0.1c0,0,0,0.1,0.1,0.1l23.5,13.6c0.3,0.2,0.8,0.2,1.1,0l4.7-2.7l0.1,0.2l-4.7,2.7
		C24.9,83.6,24.7,83.7,24.5,83.7z"/>
	<g>
		<g>
			<g>
				<g>
					<g>
						
							<linearGradient id="SVGID_8_" gradientUnits="userSpaceOnUse" x1="813.9212" y1="142.2328" x2="872.8461" y2="142.2328" gradientTransform="matrix(-1 0 0 -1 932.0824 187.3937)">
							<stop  offset="0" style="stop-color:#C0D6FF"/>
							<stop  offset="0.2978" style="stop-color:#C5DBFF"/>
							<stop  offset="0.6488" style="stop-color:#D3E9FF"/>
							<stop  offset="1" style="stop-color:#E9FFFF"/>
						</linearGradient>
						<path class="st12" d="M59.2,48.8L65.6,11l-0.5-0.2l0.8-0.4v0c0.1-0.1,0.4-0.1,0.6,0l51,29.4c0.4,0.2,0.7,0.9,0.7,1.3
							l-6.4,38.2c0,0.2-0.1,0.3-0.3,0.4l0,0l-0.8,0.4l-0.1-0.7l0,0L59.9,50.1C59.5,49.9,59.2,49.3,59.2,48.8z"/>
						
							<linearGradient id="SVGID_9_" gradientUnits="userSpaceOnUse" x1="813.9255" y1="127.1223" x2="824.041" y2="127.1223" gradientTransform="matrix(-1 0 0 -1 932.0824 187.3937)">
							<stop  offset="0" style="stop-color:#5778FF"/>
							<stop  offset="0.1779" style="stop-color:#5C7DFF"/>
							<stop  offset="0.3876" style="stop-color:#6A8AFF"/>
							<stop  offset="0.6134" style="stop-color:#82A0FF"/>
							<stop  offset="0.849" style="stop-color:#A3BEFF"/>
							<stop  offset="1" style="stop-color:#BCD5FF"/>
						</linearGradient>
						<path class="st13" d="M117.2,40.8l0.8-0.4c0.1,0.2,0.1,0.4,0.1,0.6l-6.4,38.2c0,0.2-0.1,0.3-0.3,0.4l0,0l-0.8,0.4l-0.1-0.7
							l0,0l-2.6-1.5L117.2,40.8z"/>
						<path class="st4" d="M59.1,50.6l51,29.4c0.4,0.2,0.7,0.1,0.8-0.3l6.4-38.2c0.1-0.4-0.2-1.1-0.7-1.3l-51-29.4
							c-0.4-0.2-0.7-0.1-0.8,0.3l-6.4,38.2C58.4,49.7,58.7,50.3,59.1,50.6z"/>
						<g class="st14">
							<polygon class="st5" points="66.3,13.2 115.5,41.6 109.4,77.6 60.3,49.2 							"/>
						</g>
					</g>
					<g>
						<path class="st1" d="M78.9,108.8c-0.4,0-0.9-0.1-1.3-0.3L23.3,77.1c-0.4-0.2-0.6-0.5-0.6-0.8c0-0.3,0.2-0.5,0.4-0.6l34.3-19.8
							c0.6-0.3,1.6-0.3,2.2,0.1L114,87.3c0.4,0.2,0.6,0.5,0.6,0.8c0,0.3-0.2,0.5-0.4,0.6l-34.3,19.8
							C79.6,108.7,79.2,108.8,78.9,108.8z M58.4,55.9c-0.3,0-0.6,0.1-0.9,0.2L23.3,75.9C23.1,76,23,76.2,23,76.3
							c0,0.2,0.2,0.4,0.5,0.6l54.3,31.3c0.6,0.3,1.5,0.4,2,0.1L114,88.6c0.2-0.1,0.3-0.3,0.3-0.4c0-0.2-0.2-0.4-0.5-0.6L59.6,56.2
							C59.2,56,58.8,55.9,58.4,55.9z"/>
						<path class="st0" d="M27.5,76.7L78,105.8c0.6,0.3,1.4,0.4,1.9,0.1L110,88.5c0.5-0.3,0.4-0.8-0.1-1.1L59.3,58.3
							c-0.6-0.3-1.4-0.4-1.9-0.1L27.3,75.6C26.9,75.9,26.9,76.4,27.5,76.7z"/>
						
							<linearGradient id="SVGID_10_" gradientUnits="userSpaceOnUse" x1="821.8166" y1="110.1387" x2="905.0327" y2="110.1387" gradientTransform="matrix(-1 0 0 -1 932.0824 187.3937)">
							<stop  offset="0" style="stop-color:#5778FF"/>
							<stop  offset="0.1779" style="stop-color:#5C7DFF"/>
							<stop  offset="0.3876" style="stop-color:#6A8AFF"/>
							<stop  offset="0.6134" style="stop-color:#82A0FF"/>
							<stop  offset="0.849" style="stop-color:#A3BEFF"/>
							<stop  offset="1" style="stop-color:#BCD5FF"/>
						</linearGradient>
						<path class="st15" d="M27,68.6l2.8,1.5L57.7,54c0.5-0.3,1.3-0.2,1.8,0.1l48.1,27.8c0.5-0.3,2.6-1.3,2.6-1.3l-1,2.7l0,0
							c0,0.1-0.1,0.2-0.3,0.3l-29.4,17c-0.5,0.3-1.3,0.2-1.8-0.1L28.5,72c-0.2-0.1-0.4-0.3-0.4-0.4l0,0L27,68.6z"/>
						
							<linearGradient id="SVGID_11_" gradientUnits="userSpaceOnUse" x1="849.779" y1="112.9113" x2="933.0424" y2="112.9113" gradientTransform="matrix(-1 0 0 -1 932.0824 187.3937)">
							<stop  offset="0" style="stop-color:#C0D6FF"/>
							<stop  offset="0.2978" style="stop-color:#C5DBFF"/>
							<stop  offset="0.6488" style="stop-color:#D3E9FF"/>
							<stop  offset="1" style="stop-color:#E9FFFF"/>
						</linearGradient>
						<path class="st16" d="M27.5,69.1L78,98.3c0.6,0.3,1.4,0.4,1.9,0.1L110,80.9c0.5-0.3,0.4-0.8-0.1-1.1L59.3,50.7
							c-0.6-0.3-1.4-0.4-1.9-0.1L27.3,68C26.9,68.3,26.9,68.8,27.5,69.1z"/>
						<path class="st17" d="M93.2,92v-0.6c0-0.1,0-0.1-0.1-0.1l-2,1.1c0,0-0.1,0.1-0.1,0.1v0.6c0,0.1,0,0.1,0.1,0.1l2-1.1
							C93.2,92.1,93.2,92,93.2,92z"/>
						<path class="st17" d="M90.3,93.6v-0.6c0-0.1,0-0.1-0.1-0.1l-2,1.1c0,0-0.1,0.1-0.1,0.1v0.6c0,0.1,0,0.1,0.1,0.1l2-1.1
							C90.2,93.7,90.3,93.7,90.3,93.6z"/>
						<path class="st18" d="M102.1,79.3l-42-24.2c-0.3-0.2-0.6-0.2-0.9,0l-14.9,8.6c-0.2,0.1-0.2,0.4,0,0.6l41.9,24.2
							c0.3,0.2,0.6,0.2,0.9,0l15-8.6C102.3,79.7,102.3,79.4,102.1,79.3z"/>
						<path class="st19" d="M102.1,79.9L102,80L60.1,55.8c-0.3-0.2-0.6-0.2-0.9,0l-14.8,8.6l-0.1-0.1c-0.2-0.1-0.2-0.4,0-0.6
							l14.9-8.6c0.3-0.2,0.6-0.2,0.9,0l42,24.2C102.3,79.4,102.3,79.7,102.1,79.9z"/>
						<g>
							<polygon class="st4" points="58.1,57.3 94.6,78.3 96.2,77.4 59.7,56.3 							"/>
							<polygon class="st4" points="54.1,59.6 88.3,79.3 90,78.4 55.8,58.6 							"/>
							<polygon class="st4" points="51.6,61.1 91.8,84.3 93.4,83.4 53.2,60.1 							"/>
							<polygon class="st4" points="49,62.6 89.2,85.8 90.8,84.9 50.6,61.6 							"/>
							<polygon class="st4" points="46.4,64.1 86.6,87.3 88.3,86.4 48,63.1 							"/>
							<polygon class="st4" points="96.8,79.6 98.4,80.5 100,79.6 98.4,78.7 							"/>
							<polygon class="st4" points="91,80.9 94.4,82.8 96,81.9 92.7,79.9 							"/>
						</g>
						
							<linearGradient id="SVGID_12_" gradientUnits="userSpaceOnUse" x1="863.8799" y1="108.1832" x2="885.1915" y2="108.1832" gradientTransform="matrix(-1 0 0 -1 932.0824 187.3937)">
							<stop  offset="0" style="stop-color:#C0D6FF"/>
							<stop  offset="0.2978" style="stop-color:#C5DBFF"/>
							<stop  offset="0.6488" style="stop-color:#D3E9FF"/>
							<stop  offset="1" style="stop-color:#E9FFFF"/>
						</linearGradient>
						<path class="st20" d="M58.5,85.2l-11.3-6.5c-0.4-0.3-0.4-0.7,0-0.9l7.7-4.5c0.4-0.3,1.2-0.3,1.6,0l11.3,6.5
							c0.4,0.3,0.4,0.7,0,0.9l-7.7,4.5C59.7,85.4,59,85.4,58.5,85.2z"/>
						<path class="st19" d="M67.9,80.2l-11.3-6.5c-0.4-0.3-1.2-0.3-1.6,0l-7.7,4.5c-0.1,0.1-0.2,0.2-0.3,0.3c-0.1-0.2,0-0.5,0.3-0.7
							l7.7-4.5c0.4-0.3,1.2-0.3,1.6,0l11.3,6.5c0.3,0.2,0.4,0.4,0.3,0.7C68.1,80.3,68,80.2,67.9,80.2z"/>
					</g>
				</g>
				<g class="st21">
					<g>
						<defs>
							<polygon id="SVGID_13_" points="66.3,13.2 115.5,41.6 109.4,77.6 60.3,49.2 							"/>
						</defs>
						<clipPath id="SVGID_14_">
							<use xlink:href="#SVGID_13_"  style="overflow:visible;"/>
						</clipPath>
						<g class="st22">
							
								<linearGradient id="SVGID_15_" gradientUnits="userSpaceOnUse" x1="817.9688" y1="131.3646" x2="901.2322" y2="131.3646" gradientTransform="matrix(-1 0 0 -1 932.0824 187.3937)">
								<stop  offset="0" style="stop-color:#C0D6FF"/>
								<stop  offset="0.2978" style="stop-color:#C5DBFF"/>
								<stop  offset="0.6488" style="stop-color:#D3E9FF"/>
								<stop  offset="1" style="stop-color:#E9FFFF"/>
							</linearGradient>
							<path class="st23" d="M59.3,50.7l50.5,29.1c0.6,0.3,1.4,0.4,1.9,0.1l30.1-17.4c0.5-0.3,0.4-0.8-0.1-1.1L91.2,32.3
								c-0.6-0.3-1.4-0.4-1.9-0.1L59.2,49.6C58.7,49.9,58.7,50.3,59.3,50.7z"/>
							
								<linearGradient id="SVGID_16_" gradientUnits="userSpaceOnUse" x1="812.4891" y1="137.4758" x2="833.8007" y2="137.4758" gradientTransform="matrix(-1 0 0 -1 932.0824 187.3937)">
								<stop  offset="0" style="stop-color:#C0D6FF"/>
								<stop  offset="0.2978" style="stop-color:#C5DBFF"/>
								<stop  offset="0.6488" style="stop-color:#D3E9FF"/>
								<stop  offset="1" style="stop-color:#E9FFFF"/>
							</linearGradient>
							<path class="st24" d="M109.9,55.9l-11.3-6.5c-0.4-0.3-0.4-0.7,0-0.9l7.7-4.5c0.4-0.3,1.2-0.3,1.6,0l11.3,6.5
								c0.4,0.3,0.4,0.7,0,0.9l-7.7,4.5C111.1,56.1,110.4,56.1,109.9,55.9z"/>
							<path class="st19" d="M119.3,50.9l-11.3-6.5c-0.4-0.3-1.2-0.3-1.6,0l-7.7,4.5c-0.1,0.1-0.2,0.2-0.3,0.3
								c-0.1-0.2,0-0.5,0.3-0.7l7.7-4.5c0.4-0.3,1.2-0.3,1.6,0l11.3,6.5c0.3,0.2,0.4,0.4,0.3,0.7C119.5,51,119.4,50.9,119.3,50.9z"
								/>
							<g>
								<path class="st18" d="M124.2,66.1l-42-24.2c-0.3-0.2-0.6-0.2-0.9,0l-14.9,8.6c-0.2,0.1-0.2,0.4,0,0.6l41.9,24.2
									c0.3,0.2,0.6,0.2,0.9,0l15-8.6C124.4,66.5,124.4,66.2,124.2,66.1z"/>
								<path class="st19" d="M124.2,66.6l-0.1,0.1L82.3,42.6c-0.3-0.2-0.6-0.2-0.9,0l-14.8,8.6l-0.1-0.1c-0.2-0.1-0.2-0.4,0-0.6
									l14.9-8.6c0.3-0.2,0.6-0.2,0.9,0l42,24.2C124.4,66.2,124.4,66.5,124.2,66.6z"/>
								<g>
									<polygon class="st4" points="70.3,49.9 106.9,71 105.4,71.9 68.9,50.8 									"/>
									<polygon class="st4" points="74.2,47.7 108.9,67.8 107.5,68.6 72.7,48.5 									"/>
									<polygon class="st4" points="111.5,69.2 114.8,71.1 113.3,72 110.1,70.1 									"/>
									<polygon class="st4" points="108.7,72 110.9,73.3 109.5,74.2 107.2,72.9 									"/>
									<polygon class="st4" points="76.6,46.3 117.2,69.7 115.7,70.6 75.2,47.1 									"/>
									<polygon class="st4" points="79,44.9 119.6,68.3 118.2,69.2 77.6,45.7 									"/>
									<polygon class="st4" points="81.4,43.5 122,66.9 120.6,67.8 80,44.4 									"/>
								</g>
							</g>
						</g>
					</g>
				</g>
			</g>
		</g>
		
			<radialGradient id="SVGID_17_" cx="846.0704" cy="120.6476" r="23.869" gradientTransform="matrix(-1 0 0 -1 932.0824 187.3937)" gradientUnits="userSpaceOnUse">
			<stop  offset="0" style="stop-color:#2B3AA5"/>
			<stop  offset="1" style="stop-color:#182484"/>
		</radialGradient>
		<polygon class="st25" points="82.7,77.2 93.5,70.5 69.1,56.3 57.5,64.1 		"/>
		
			<radialGradient id="SVGID_18_" cx="840.85" cy="131.3853" r="18.2702" gradientTransform="matrix(-1 0 0 -1 932.0824 187.3937)" gradientUnits="userSpaceOnUse">
			<stop  offset="0" style="stop-color:#2B3AA5"/>
			<stop  offset="1" style="stop-color:#182484"/>
		</radialGradient>
		<polygon class="st26" points="93.5,70.5 96,54.7 73.1,41.6 73.1,58.6 		"/>
		<g>
			<polygon class="st27" points="95.3,35.3 92.7,33.8 92.8,33.2 95.4,34.7 			"/>
			<polygon class="st27" points="96.7,36 95.7,35.5 95.8,34.9 96.7,35.5 			"/>
			<polygon class="st27" points="97.7,36.6 97.1,36.2 97.1,35.7 97.8,36 			"/>
			<polygon class="st27" points="93.9,35.9 92.5,35.1 92.6,34.5 94,35.3 			"/>
			<polygon class="st27" points="96.1,37.1 94.3,36.1 94.4,35.5 96.2,36.5 			"/>
			<polygon class="st27" points="97.1,37.7 96.5,37.3 96.6,36.7 97.2,37.1 			"/>
			<polygon class="st27" points="98.1,38.2 97.5,37.9 97.5,37.3 98.2,37.7 			"/>
			<polygon class="st1" points="93.3,36.9 92.3,36.4 92.4,35.8 93.4,36.4 			"/>
			<polygon class="st1" points="94.1,37.4 93.7,37.2 93.8,36.6 94.2,36.8 			"/>
			<polygon class="st27" points="95.1,37.9 94.5,37.6 94.6,37 95.2,37.4 			"/>
			<polygon class="st27" points="95.9,39.8 92.1,37.6 92.2,37.1 96,39.2 			"/>
			<polygon class="st27" points="97.2,40.5 96.3,40 96.4,39.5 97.3,40 			"/>
			<polygon class="st27" points="92.9,39.5 91.9,38.9 92,38.4 93,38.9 			"/>
			<polygon class="st27" points="95.3,40.9 93.3,39.7 93.4,39.2 95.4,40.3 			"/>
			<polygon class="st27" points="96.4,41.5 95.7,41.1 95.8,40.5 96.5,40.9 			"/>
			<polygon class="st27" points="93.8,41.4 91.7,40.2 91.8,39.6 93.9,40.8 			"/>
			<polygon class="st1" points="95.7,42.5 94.2,41.6 94.3,41.1 95.8,41.9 			"/>
			<polygon class="st27" points="97.2,43.3 96.1,42.7 96.2,42.1 97.2,42.7 			"/>
			<polygon class="st27" points="92.2,41.9 91.5,41.5 91.6,40.9 92.3,41.3 			"/>
			<polygon class="st27" points="93.6,42.7 92.6,42.1 92.7,41.6 93.6,42.1 			"/>
			<polygon class="st27" points="95.5,43.7 94,42.9 94,42.3 95.6,43.2 			"/>
			<polygon class="st27" points="93.5,44 91.3,42.8 91.4,42.2 93.6,43.4 			"/>
			<polygon class="st27" points="95.9,45.4 93.9,44.2 94,43.7 96,44.8 			"/>
			<polygon class="st1" points="96.9,46 96.3,45.6 96.4,45.1 97,45.4 			"/>
			<polygon class="st27" points="97.9,46.5 97.3,46.2 97.4,45.6 98,46 			"/>
			<polygon class="st27" points="92.4,44.8 91.1,44.1 91.2,43.5 92.5,44.2 			"/>
			<polygon class="st1" points="99.5,37.6 101.3,38.6 101.4,38.1 99.6,37.1 			"/>
			<polygon class="st27" points="99.6,39.1 101.1,39.9 101.2,39.4 99.7,38.6 			"/>
			<polygon class="st27" points="99.8,40.6 100.9,41.2 100.9,40.6 99.9,40.1 			"/>
			<polygon class="st27" points="99.2,41.6 100.7,42.5 100.7,41.9 99.3,41.1 			"/>
			<polygon class="st27" points="99.4,43.2 100.5,43.8 100.5,43.2 99.5,42.6 			"/>
			<polygon class="st27" points="99,44.3 100.3,45.1 100.3,44.5 99,43.8 			"/>
			<polygon class="st27" points="99.3,45.9 100.1,46.3 100.1,45.8 99.4,45.4 			"/>
			<polygon class="st27" points="98.5,46.8 99.9,47.6 99.9,47.1 98.6,46.3 			"/>
			<polygon class="st27" points="98.4,48.2 99.7,48.9 99.7,48.4 98.4,47.6 			"/>
			<polygon class="st27" points="93.4,45.3 92.8,45 92.9,44.5 93.5,44.8 			"/>
			<polygon class="st27" points="95,46.3 93.8,45.6 93.8,45 95.1,45.7 			"/>
			<polygon class="st27" points="105.4,41 102.8,39.5 102.9,38.9 105.5,40.4 			"/>
			<polygon class="st27" points="106.7,41.7 105.8,41.2 105.9,40.6 106.8,41.2 			"/>
			<polygon class="st1" points="107.8,42.3 107.1,42 107.2,41.4 107.9,41.8 			"/>
			<polygon class="st27" points="104,41.6 102.6,40.8 102.7,40.2 104.1,41 			"/>
			<polygon class="st27" points="106.2,42.8 104.4,41.8 104.5,41.2 106.2,42.2 			"/>
			<polygon class="st1" points="107.2,43.4 106.6,43 106.6,42.5 107.3,42.8 			"/>
			<polygon class="st27" points="108.2,43.9 107.5,43.6 107.6,43 108.3,43.4 			"/>
			<polygon class="st27" points="103.4,42.6 102.4,42.1 102.5,41.5 103.5,42.1 			"/>
			<polygon class="st27" points="104.2,43.1 103.8,42.9 103.9,42.3 104.3,42.5 			"/>
			<polygon class="st27" points="105.2,43.7 104.6,43.3 104.7,42.7 105.3,43.1 			"/>
			<polygon class="st27" points="106,45.5 102.2,43.3 102.3,42.8 106.1,44.9 			"/>
			<polygon class="st27" points="107.3,46.3 106.4,45.7 106.5,45.2 107.4,45.7 			"/>
			<polygon class="st27" points="103,45.2 102,44.6 102.1,44.1 103.1,44.7 			"/>
			<polygon class="st27" points="105.4,46.6 103.4,45.4 103.5,44.9 105.5,46 			"/>
			<polygon class="st27" points="106.5,47.2 105.8,46.8 105.9,46.2 106.6,46.6 			"/>
			<polygon class="st1" points="103.9,47.1 101.8,45.9 101.9,45.4 104,46.5 			"/>
			<polygon class="st27" points="105.8,48.2 104.3,47.3 104.4,46.8 105.9,47.6 			"/>
			<polygon class="st27" points="107.2,49 106.2,48.4 106.3,47.9 107.3,48.4 			"/>
			<polygon class="st27" points="102.3,47.6 101.6,47.2 101.7,46.6 102.4,47 			"/>
			<polygon class="st27" points="103.6,48.4 102.7,47.8 102.8,47.3 103.7,47.8 			"/>
			<polygon class="st1" points="105.5,49.4 104,48.6 104.1,48 105.6,48.9 			"/>
			<polygon class="st27" points="103.6,49.7 101.4,48.5 101.5,47.9 103.7,49.2 			"/>
			<polygon class="st27" points="106,51.1 104,49.9 104.1,49.4 106.1,50.5 			"/>
			<polygon class="st27" points="107,51.7 106.4,51.3 106.5,50.8 107.1,51.1 			"/>
			<polygon class="st27" points="108,52.3 107.4,51.9 107.5,51.3 108.1,51.7 			"/>
			<polygon class="st27" points="102.5,50.5 101.2,49.8 101.3,49.2 102.6,49.9 			"/>
			<polygon class="st1" points="109.5,43.3 111.3,44.3 111.4,43.8 109.6,42.8 			"/>
			<polygon class="st27" points="109.7,44.8 111.1,45.6 111.2,45.1 109.8,44.3 			"/>
			<polygon class="st27" points="109.9,46.3 110.9,46.9 111,46.4 110,45.8 			"/>
			<polygon class="st27" points="109.3,47.4 110.7,48.2 110.8,47.6 109.3,46.8 			"/>
			<polygon class="st27" points="109.5,48.9 110.5,49.5 110.6,48.9 109.6,48.3 			"/>
			<polygon class="st27" points="109,50 110.3,50.8 110.4,50.2 109.1,49.5 			"/>
			<polygon class="st27" points="109.4,51.7 110.1,52.1 110.2,51.5 109.5,51.1 			"/>
			<polygon class="st27" points="108.6,52.6 109.9,53.3 110,52.8 108.7,52 			"/>
			<polygon class="st27" points="108.4,53.9 109.7,54.6 109.8,54.1 108.5,53.3 			"/>
			<polygon class="st1" points="103.4,51 102.9,50.7 103,50.2 103.5,50.5 			"/>
			<polygon class="st27" points="105.1,52 103.8,51.3 103.9,50.7 105.2,51.4 			"/>
			<polygon class="st27" points="93.5,46.8 90.9,45.3 91,44.8 93.6,46.3 			"/>
			<polygon class="st27" points="94.8,47.6 93.9,47.1 94,46.5 94.9,47 			"/>
			<polygon class="st27" points="95.9,48.2 95.2,47.8 95.3,47.2 96,47.6 			"/>
			<polygon class="st27" points="92.1,47.4 90.7,46.6 90.8,46.1 92.2,46.9 			"/>
			<polygon class="st27" points="94.3,48.7 92.5,47.7 92.6,47.1 94.3,48.1 			"/>
			<polygon class="st27" points="95.3,49.2 94.7,48.9 94.7,48.3 95.4,48.7 			"/>
			<polygon class="st27" points="96.3,49.8 95.6,49.4 95.7,48.9 96.4,49.2 			"/>
			<polygon class="st27" points="91.5,48.5 90.5,47.9 90.6,47.4 91.6,47.9 			"/>
			<polygon class="st27" points="92.3,48.9 91.9,48.7 92,48.2 92.4,48.4 			"/>
			<polygon class="st27" points="93.3,49.5 92.7,49.2 92.8,48.6 93.4,49 			"/>
			<polygon class="st27" points="94.1,51.4 90.3,49.2 90.4,48.6 94.2,50.8 			"/>
			<polygon class="st27" points="95.4,52.1 94.5,51.6 94.6,51 95.5,51.5 			"/>
			<polygon class="st27" points="91.1,51.1 90.1,50.5 90.2,49.9 91.2,50.5 			"/>
			<polygon class="st27" points="93.5,52.4 91.5,51.3 91.6,50.7 93.6,51.9 			"/>
			<polygon class="st27" points="94.6,53 93.9,52.7 94,52.1 94.7,52.5 			"/>
			<polygon class="st27" points="92,53 89.9,51.8 90,51.2 92.1,52.4 			"/>
			<polygon class="st27" points="93.9,54.1 92.4,53.2 92.5,52.6 94,53.5 			"/>
			<polygon class="st27" points="95.3,54.9 94.3,54.3 94.4,53.7 95.4,54.3 			"/>
			<polygon class="st27" points="90.4,53.5 89.7,53.1 89.8,52.5 90.5,52.9 			"/>
			<polygon class="st27" points="91.7,54.2 90.8,53.7 90.9,53.1 91.8,53.7 			"/>
			<polygon class="st27" points="93.6,55.3 92.1,54.4 92.2,53.9 93.7,54.7 			"/>
			<polygon class="st27" points="91.7,55.6 89.5,54.3 89.6,53.8 91.8,55 			"/>
			<polygon class="st27" points="94.1,57 92.1,55.8 92.2,55.2 94.2,56.4 			"/>
			<polygon class="st27" points="95.1,57.5 94.5,57.2 94.6,56.6 95.2,57 			"/>
			<polygon class="st27" points="96.1,58.1 95.5,57.7 95.6,57.2 96.2,57.5 			"/>
			<polygon class="st27" points="90.6,56.4 89.3,55.6 89.4,55.1 90.7,55.8 			"/>
			<polygon class="st27" points="97.6,49.2 99.4,50.2 99.5,49.6 97.7,48.6 			"/>
			<polygon class="st27" points="97.8,50.7 99.2,51.5 99.3,50.9 97.9,50.1 			"/>
			<polygon class="st27" points="98,52.2 99,52.8 99.1,52.2 98.1,51.6 			"/>
			<polygon class="st27" points="97.4,53.2 98.8,54.1 98.9,53.5 97.4,52.6 			"/>
			<polygon class="st27" points="97.6,54.8 98.6,55.3 98.7,54.8 97.7,54.2 			"/>
			<polygon class="st27" points="97.1,55.9 98.4,56.6 98.5,56.1 97.2,55.3 			"/>
			<polygon class="st27" points="97.5,57.5 98.2,57.9 98.3,57.3 97.6,56.9 			"/>
			<polygon class="st27" points="96.7,58.4 98,59.2 98.1,58.6 96.8,57.9 			"/>
			<polygon class="st27" points="96.5,59.7 97.8,60.5 97.9,59.9 96.6,59.2 			"/>
			<polygon class="st27" points="91.5,56.9 91,56.6 91.1,56 91.6,56.3 			"/>
			<polygon class="st27" points="93.2,57.8 91.9,57.1 92,56.6 93.3,57.3 			"/>
			<polygon class="st27" points="93.6,62.2 91.5,61 91.6,60.4 93.7,61.6 			"/>
			<polygon class="st27" points="95.1,63 94.2,62.5 94.3,61.9 95.2,62.4 			"/>
			<polygon class="st27" points="103.6,52.5 101,51.1 101.1,50.5 103.7,52 			"/>
			<polygon class="st27" points="104.9,53.3 104,52.8 104.1,52.2 105,52.7 			"/>
			<polygon class="st27" points="106,53.9 105.3,53.5 105.4,53 106,53.3 			"/>
			<polygon class="st27" points="102.2,53.2 100.8,52.3 100.9,51.8 102.3,52.6 			"/>
			<polygon class="st27" points="104.3,54.4 102.6,53.4 102.7,52.8 104.4,53.8 			"/>
			<polygon class="st27" points="105.4,54.9 104.7,54.6 104.8,54 105.5,54.4 			"/>
			<polygon class="st27" points="106.4,55.5 105.7,55.1 105.8,54.6 106.4,54.9 			"/>
			<polygon class="st27" points="101.6,54.2 100.6,53.6 100.7,53.1 101.7,53.6 			"/>
			<polygon class="st27" points="102.4,54.6 102,54.4 102.1,53.9 102.4,54.1 			"/>
			<polygon class="st27" points="103.4,55.2 102.8,54.9 102.8,54.3 103.5,54.7 			"/>
			<polygon class="st27" points="104.2,57.1 100.4,54.9 100.5,54.4 104.3,56.5 			"/>
			<polygon class="st27" points="105.5,57.8 104.6,57.3 104.7,56.7 105.6,57.3 			"/>
			<polygon class="st27" points="101.2,56.8 100.2,56.2 100.3,55.6 101.3,56.2 			"/>
			<polygon class="st27" points="103.6,58.1 101.6,57 101.7,56.4 103.7,57.6 			"/>
			<polygon class="st27" points="104.6,58.7 104,58.4 104.1,57.8 104.7,58.2 			"/>
			<polygon class="st27" points="102.1,58.7 100,57.5 100.1,56.9 102.2,58.1 			"/>
			<polygon class="st27" points="104,59.8 102.5,58.9 102.6,58.3 104.1,59.2 			"/>
			<polygon class="st27" points="105.4,60.6 104.4,60 104.5,59.4 105.5,60 			"/>
			<polygon class="st27" points="100.5,59.2 99.8,58.8 99.9,58.2 100.6,58.6 			"/>
			<polygon class="st27" points="101.8,59.9 100.9,59.4 101,58.8 101.9,59.4 			"/>
			<polygon class="st27" points="103.7,61 102.2,60.2 102.3,59.6 103.8,60.4 			"/>
			<polygon class="st27" points="101.7,61.3 99.6,60.1 99.7,59.5 101.8,60.7 			"/>
			<polygon class="st27" points="104.2,62.7 102.1,61.5 102.2,60.9 104.3,62.1 			"/>
			<polygon class="st27" points="105.2,63.3 104.6,62.9 104.7,62.3 105.3,62.7 			"/>
			<polygon class="st27" points="106.2,63.8 105.6,63.5 105.7,62.9 106.3,63.3 			"/>
			<polygon class="st27" points="100.7,62.1 99.4,61.3 99.5,60.8 100.8,61.5 			"/>
			<polygon class="st27" points="107.7,54.9 109.5,55.9 109.6,55.4 107.8,54.3 			"/>
			<polygon class="st27" points="107.9,56.4 109.3,57.2 109.4,56.6 108,55.8 			"/>
			<polygon class="st27" points="108.1,57.9 109.1,58.5 109.2,57.9 108.2,57.3 			"/>
			<polygon class="st27" points="107.4,58.9 108.9,59.8 109,59.2 107.5,58.4 			"/>
			<polygon class="st27" points="107.7,60.5 108.7,61.1 108.8,60.5 107.8,59.9 			"/>
			<polygon class="st27" points="107.2,61.6 108.5,62.3 108.6,61.8 107.3,61 			"/>
			<polygon class="st27" points="107.6,63.2 108.3,63.6 108.4,63.1 107.7,62.7 			"/>
			<polygon class="st27" points="106.7,64.1 108.1,64.9 108.2,64.3 106.8,63.6 			"/>
			<polygon class="st27" points="106.6,65.5 107.9,66.2 108,65.6 106.7,64.9 			"/>
			<polygon class="st27" points="101.6,62.6 101.1,62.3 101.2,61.7 101.7,62.1 			"/>
			<polygon class="st27" points="103.3,63.5 102,62.8 102.1,62.3 103.4,63 			"/>
			<polygon class="st27" points="103.7,67.9 101.6,66.7 101.7,66.1 103.8,67.3 			"/>
			<polygon class="st27" points="105.1,68.7 104.3,68.2 104.4,67.7 105.2,68.1 			"/>
		</g>
		<g>
			<polygon class="st27" points="71.1,21.4 68.5,19.9 68.6,19.3 71.2,20.8 			"/>
			<polygon class="st27" points="72.4,22.1 71.5,21.6 71.6,21 72.5,21.6 			"/>
			<polygon class="st27" points="73.5,22.7 72.8,22.3 72.9,21.8 73.5,22.1 			"/>
			<polygon class="st27" points="69.7,22 68.3,21.2 68.4,20.6 69.8,21.4 			"/>
			<polygon class="st27" points="71.8,23.2 70.1,22.2 70.2,21.6 71.9,22.6 			"/>
			<polygon class="st27" points="72.9,23.8 72.2,23.4 72.3,22.8 73,23.2 			"/>
			<polygon class="st27" points="73.9,24.3 73.2,24 73.3,23.4 73.9,23.8 			"/>
			<polygon class="st1" points="69.1,23 68.1,22.4 68.2,21.9 69.2,22.5 			"/>
			<polygon class="st1" points="69.9,23.5 69.5,23.3 69.6,22.7 70,22.9 			"/>
			<polygon class="st27" points="70.9,24 70.3,23.7 70.3,23.1 71,23.5 			"/>
			<polygon class="st27" points="71.7,25.9 67.9,23.7 68,23.2 71.8,25.3 			"/>
			<polygon class="st27" points="73,26.6 72.1,26.1 72.2,25.5 73.1,26.1 			"/>
			<polygon class="st27" points="68.7,25.6 67.7,25 67.8,24.5 68.8,25 			"/>
			<polygon class="st27" points="71.1,27 69.1,25.8 69.2,25.3 71.2,26.4 			"/>
			<polygon class="st27" points="72.2,27.6 71.5,27.2 71.6,26.6 72.2,27 			"/>
			<polygon class="st27" points="69.6,27.5 67.5,26.3 67.6,25.7 69.7,26.9 			"/>
			<polygon class="st1" points="71.5,28.6 70,27.7 70.1,27.2 71.6,28 			"/>
			<polygon class="st27" points="72.9,29.4 71.9,28.8 72,28.2 73,28.8 			"/>
			<polygon class="st27" points="68,28 67.3,27.6 67.4,27 68.1,27.4 			"/>
			<polygon class="st27" points="69.3,28.7 68.4,28.2 68.5,27.7 69.4,28.2 			"/>
			<polygon class="st27" points="71.2,29.8 69.7,29 69.8,28.4 71.3,29.3 			"/>
			<polygon class="st27" points="69.3,30.1 67.1,28.9 67.2,28.3 69.3,29.5 			"/>
			<polygon class="st27" points="71.7,31.5 69.7,30.3 69.7,29.8 71.8,30.9 			"/>
			<polygon class="st1" points="72.7,32.1 72.1,31.7 72.2,31.2 72.8,31.5 			"/>
			<polygon class="st27" points="73.7,32.6 73.1,32.3 73.2,31.7 73.8,32.1 			"/>
			<polygon class="st27" points="68.2,30.9 66.9,30.2 67,29.6 68.3,30.3 			"/>
			<polygon class="st1" points="75.2,23.7 77,24.7 77.1,24.2 75.3,23.1 			"/>
			<polygon class="st27" points="75.4,25.2 76.8,26 76.9,25.5 75.5,24.7 			"/>
			<polygon class="st27" points="75.6,26.7 76.6,27.3 76.7,26.7 75.7,26.2 			"/>
			<polygon class="st27" points="74.9,27.7 76.4,28.6 76.5,28 75,27.2 			"/>
			<polygon class="st27" points="75.2,29.3 76.2,29.9 76.3,29.3 75.3,28.7 			"/>
			<polygon class="st27" points="74.7,30.4 76,31.2 76.1,30.6 74.8,29.9 			"/>
			<polygon class="st27" points="75.1,32 75.8,32.4 75.9,31.9 75.2,31.5 			"/>
			<polygon class="st27" points="74.2,32.9 75.6,33.7 75.7,33.2 74.3,32.4 			"/>
			<polygon class="st27" points="74.1,34.3 75.4,35 75.5,34.4 74.2,33.7 			"/>
			<polygon class="st27" points="69.1,31.4 68.6,31.1 68.7,30.6 69.2,30.9 			"/>
			<polygon class="st27" points="70.8,32.4 69.5,31.7 69.6,31.1 70.9,31.8 			"/>
			<polygon class="st27" points="81.2,27.1 78.6,25.6 78.7,25 81.3,26.5 			"/>
			<polygon class="st27" points="82.5,27.8 81.6,27.3 81.7,26.7 82.6,27.3 			"/>
			<polygon class="st1" points="83.5,28.4 82.9,28.1 83,27.5 83.6,27.9 			"/>
			<polygon class="st27" points="79.8,27.7 78.4,26.9 78.5,26.3 79.9,27.1 			"/>
			<polygon class="st27" points="81.9,28.9 80.2,27.9 80.3,27.3 82,28.3 			"/>
			<polygon class="st1" points="83,29.5 82.3,29.1 82.4,28.6 83,28.9 			"/>
			<polygon class="st27" points="83.9,30 83.3,29.7 83.4,29.1 84,29.5 			"/>
			<polygon class="st27" points="79.2,28.7 78.2,28.2 78.3,27.6 79.3,28.2 			"/>
			<polygon class="st27" points="79.9,29.2 79.6,29 79.7,28.4 80,28.6 			"/>
			<polygon class="st27" points="81,29.8 80.3,29.4 80.4,28.8 81.1,29.2 			"/>
			<polygon class="st27" points="81.8,31.6 78,29.4 78.1,28.9 81.8,31 			"/>
			<polygon class="st27" points="83.1,32.4 82.2,31.8 82.2,31.3 83.2,31.8 			"/>
			<polygon class="st27" points="78.8,31.3 77.8,30.7 77.9,30.2 78.9,30.8 			"/>
			<polygon class="st27" points="81.2,32.7 79.2,31.5 79.3,31 81.3,32.1 			"/>
			<polygon class="st27" points="82.2,33.3 81.6,32.9 81.7,32.3 82.3,32.7 			"/>
			<polygon class="st1" points="79.7,33.2 77.6,32 77.7,31.5 79.8,32.6 			"/>
			<polygon class="st27" points="81.6,34.3 80.1,33.4 80.2,32.9 81.7,33.7 			"/>
			<polygon class="st27" points="83,35.1 82,34.5 82.1,34 83.1,34.5 			"/>
			<polygon class="st27" points="78.1,33.7 77.4,33.3 77.5,32.7 78.2,33.1 			"/>
			<polygon class="st27" points="79.4,34.5 78.5,33.9 78.6,33.4 79.5,33.9 			"/>
			<polygon class="st1" points="81.3,35.5 79.8,34.7 79.9,34.1 81.4,35 			"/>
			<polygon class="st27" points="79.3,35.8 77.2,34.6 77.3,34 79.4,35.3 			"/>
			<polygon class="st27" points="81.8,37.2 79.7,36 79.8,35.5 81.9,36.6 			"/>
			<polygon class="st27" points="82.8,37.8 82.2,37.4 82.3,36.9 82.9,37.2 			"/>
			<polygon class="st27" points="83.8,38.3 83.2,38 83.2,37.4 83.9,37.8 			"/>
			<polygon class="st27" points="78.3,36.6 77,35.9 77.1,35.3 78.4,36 			"/>
			<polygon class="st1" points="85.3,29.4 87.1,30.4 87.2,29.9 85.4,28.9 			"/>
			<polygon class="st27" points="85.5,30.9 86.9,31.7 87,31.2 85.6,30.4 			"/>
			<polygon class="st27" points="85.7,32.4 86.7,33 86.8,32.5 85.8,31.9 			"/>
			<polygon class="st27" points="85,33.5 86.5,34.3 86.6,33.7 85.1,32.9 			"/>
			<polygon class="st27" points="85.3,35 86.3,35.6 86.4,35 85.4,34.4 			"/>
			<polygon class="st27" points="84.8,36.1 86.1,36.9 86.2,36.3 84.9,35.6 			"/>
			<polygon class="st27" points="85.2,37.8 85.9,38.2 86,37.6 85.3,37.2 			"/>
			<polygon class="st27" points="84.3,38.7 85.7,39.4 85.8,38.9 84.4,38.1 			"/>
			<polygon class="st27" points="84.2,40 85.5,40.7 85.6,40.2 84.3,39.4 			"/>
			<polygon class="st1" points="79.2,37.1 78.7,36.8 78.7,36.3 79.3,36.6 			"/>
			<polygon class="st27" points="80.9,38.1 79.6,37.4 79.7,36.8 80.9,37.5 			"/>
			<polygon class="st27" points="69.3,32.9 66.7,31.4 66.8,30.9 69.4,32.4 			"/>
			<polygon class="st27" points="70.6,33.7 69.7,33.2 69.8,32.6 70.7,33.1 			"/>
			<polygon class="st27" points="71.6,34.3 71,33.9 71.1,33.3 71.7,33.7 			"/>
			<polygon class="st27" points="67.9,33.5 66.5,32.7 66.6,32.2 68,33 			"/>
			<polygon class="st27" points="70,34.8 68.3,33.8 68.4,33.2 70.1,34.2 			"/>
			<polygon class="st27" points="71.1,35.3 70.4,35 70.5,34.4 71.1,34.8 			"/>
			<polygon class="st27" points="72,35.9 71.4,35.5 71.5,35 72.1,35.3 			"/>
			<polygon class="st27" points="67.3,34.6 66.3,34 66.4,33.5 67.4,34 			"/>
			<polygon class="st27" points="68,35 67.7,34.8 67.8,34.3 68.1,34.5 			"/>
			<polygon class="st27" points="69.1,35.6 68.4,35.2 68.5,34.7 69.2,35 			"/>
			<polygon class="st27" points="69.9,37.5 66.1,35.3 66.2,34.7 69.9,36.9 			"/>
			<polygon class="st27" points="71.2,38.2 70.3,37.7 70.3,37.1 71.3,37.6 			"/>
			<polygon class="st27" points="66.9,37.2 65.9,36.6 66,36 67,36.6 			"/>
			<polygon class="st27" points="69.3,38.5 67.3,37.4 67.4,36.8 69.4,38 			"/>
			<polygon class="st27" points="70.3,39.1 69.7,38.8 69.8,38.2 70.4,38.6 			"/>
			<polygon class="st27" points="67.8,39.1 65.7,37.9 65.8,37.3 67.9,38.5 			"/>
			<polygon class="st27" points="69.7,40.1 68.2,39.3 68.3,38.7 69.8,39.6 			"/>
			<polygon class="st27" points="71.1,41 70.1,40.4 70.2,39.8 71.2,40.4 			"/>
			<polygon class="st27" points="66.2,39.6 65.5,39.2 65.6,38.6 66.3,39 			"/>
			<polygon class="st27" points="67.5,40.3 66.6,39.8 66.7,39.2 67.6,39.8 			"/>
			<polygon class="st27" points="69.4,41.4 67.9,40.5 68,40 69.5,40.8 			"/>
			<polygon class="st27" points="67.4,41.7 65.3,40.4 65.4,39.9 67.5,41.1 			"/>
			<polygon class="st27" points="69.9,43.1 67.8,41.9 67.9,41.3 70,42.5 			"/>
			<polygon class="st27" points="70.9,43.6 70.3,43.3 70.3,42.7 71,43.1 			"/>
			<polygon class="st27" points="71.9,44.2 71.3,43.8 71.3,43.3 72,43.6 			"/>
			<polygon class="st27" points="66.4,42.5 65.1,41.7 65.2,41.2 66.5,41.9 			"/>
			<polygon class="st27" points="73.4,35.3 75.2,36.3 75.3,35.7 73.5,34.7 			"/>
			<polygon class="st27" points="73.6,36.8 75,37.6 75.1,37 73.7,36.2 			"/>
			<polygon class="st27" points="73.8,38.3 74.8,38.9 74.9,38.3 73.9,37.7 			"/>
			<polygon class="st27" points="73.1,39.3 74.6,40.2 74.7,39.6 73.2,38.7 			"/>
			<polygon class="st27" points="73.4,40.9 74.4,41.4 74.5,40.9 73.5,40.3 			"/>
			<polygon class="st27" points="72.9,42 74.2,42.7 74.3,42.2 73,41.4 			"/>
			<polygon class="st27" points="73.3,43.6 74,44 74.1,43.4 73.4,43 			"/>
			<polygon class="st27" points="72.4,44.5 73.8,45.3 73.9,44.7 72.5,44 			"/>
			<polygon class="st27" points="72.3,45.8 73.6,46.6 73.7,46 72.4,45.3 			"/>
			<polygon class="st27" points="67.3,43 66.8,42.7 66.9,42.1 67.4,42.4 			"/>
			<polygon class="st27" points="69,43.9 67.7,43.2 67.8,42.7 69,43.4 			"/>
			<polygon class="st27" points="69.4,48.3 67.3,47.1 67.4,46.5 69.5,47.7 			"/>
			<polygon class="st27" points="70.8,49.1 70,48.6 70.1,48 70.9,48.5 			"/>
			<polygon class="st27" points="79.4,38.6 76.8,37.2 76.9,36.6 79.4,38.1 			"/>
			<polygon class="st27" points="80.7,39.4 79.8,38.9 79.8,38.3 80.8,38.8 			"/>
			<polygon class="st27" points="81.7,40 81.1,39.6 81.2,39.1 81.8,39.4 			"/>
			<polygon class="st27" points="78,39.2 76.6,38.4 76.6,37.9 78.1,38.7 			"/>
			<polygon class="st27" points="80.1,40.5 78.4,39.5 78.5,38.9 80.2,39.9 			"/>
			<polygon class="st27" points="81.1,41 80.5,40.7 80.6,40.1 81.2,40.5 			"/>
			<polygon class="st27" points="82.1,41.6 81.5,41.2 81.6,40.7 82.2,41 			"/>
			<polygon class="st27" points="77.4,40.3 76.4,39.7 76.4,39.2 77.5,39.7 			"/>
			<polygon class="st27" points="78.1,40.7 77.8,40.5 77.9,40 78.2,40.2 			"/>
			<polygon class="st27" points="79.2,41.3 78.5,41 78.6,40.4 79.3,40.8 			"/>
			<polygon class="st27" points="79.9,43.2 76.2,41 76.2,40.4 80,42.6 			"/>
			<polygon class="st27" points="81.3,43.9 80.3,43.4 80.4,42.8 81.4,43.4 			"/>
			<polygon class="st27" points="77,42.9 76,42.3 76,41.7 77.1,42.3 			"/>
			<polygon class="st27" points="79.4,44.2 77.4,43.1 77.5,42.5 79.5,43.7 			"/>
			<polygon class="st27" points="80.4,44.8 79.8,44.5 79.9,43.9 80.5,44.3 			"/>
			<polygon class="st27" points="77.8,44.8 75.8,43.6 75.8,43 77.9,44.2 			"/>
			<polygon class="st27" points="79.8,45.9 78.2,45 78.3,44.4 79.9,45.3 			"/>
			<polygon class="st27" points="81.2,46.7 80.2,46.1 80.2,45.5 81.3,46.1 			"/>
			<polygon class="st27" points="76.3,45.3 75.6,44.9 75.6,44.3 76.3,44.7 			"/>
			<polygon class="st27" points="77.6,46 76.7,45.5 76.7,44.9 77.7,45.5 			"/>
			<polygon class="st27" points="79.5,47.1 78,46.3 78.1,45.7 79.6,46.5 			"/>
			<polygon class="st27" points="77.5,47.4 75.3,46.1 75.4,45.6 77.6,46.8 			"/>
			<polygon class="st27" points="79.9,48.8 77.9,47.6 78,47 80,48.2 			"/>
			<polygon class="st27" points="81,49.4 80.3,49 80.4,48.4 81.1,48.8 			"/>
			<polygon class="st27" points="82,49.9 81.3,49.6 81.4,49 82.1,49.4 			"/>
			<polygon class="st27" points="76.4,48.2 75.1,47.4 75.2,46.9 76.5,47.6 			"/>
			<polygon class="st27" points="83.5,41 85.3,42 85.4,41.4 83.6,40.4 			"/>
			<polygon class="st27" points="83.7,42.5 85.1,43.3 85.2,42.7 83.8,41.9 			"/>
			<polygon class="st27" points="83.9,44 84.9,44.6 85,44 84,43.4 			"/>
			<polygon class="st27" points="83.2,45 84.7,45.9 84.8,45.3 83.3,44.5 			"/>
			<polygon class="st27" points="83.5,46.6 84.5,47.2 84.6,46.6 83.6,46 			"/>
			<polygon class="st27" points="83,47.7 84.3,48.4 84.4,47.9 83.1,47.1 			"/>
			<polygon class="st27" points="83.4,49.3 84.1,49.7 84.2,49.2 83.5,48.8 			"/>
			<polygon class="st27" points="82.5,50.2 83.9,51 84,50.4 82.6,49.7 			"/>
			<polygon class="st27" points="82.4,51.5 83.7,52.3 83.8,51.7 82.5,51 			"/>
			<polygon class="st27" points="77.4,48.7 76.8,48.4 76.9,47.8 77.5,48.1 			"/>
			<polygon class="st27" points="79,49.6 77.8,48.9 77.9,48.4 79.1,49.1 			"/>
			<polygon class="st27" points="79.5,54 77.4,52.8 77.5,52.2 79.6,53.4 			"/>
			<polygon class="st27" points="80.9,54.8 80.1,54.3 80.2,53.8 81,54.2 			"/>
		</g>
		<g>
			<g>
				
					<linearGradient id="SVGID_19_" gradientUnits="userSpaceOnUse" x1="834.2719" y1="126.1109" x2="850.3659" y2="155.0905" gradientTransform="matrix(-1 0 0 -1 932.0824 187.3937)">
					<stop  offset="0" style="stop-color:#5778FF"/>
					<stop  offset="3.980000e-02" style="stop-color:#5C7DFF"/>
					<stop  offset="8.670000e-02" style="stop-color:#6A8AFF"/>
					<stop  offset="0.1372" style="stop-color:#82A0FF"/>
					<stop  offset="0.1899" style="stop-color:#A3BEFF"/>
					<stop  offset="0.2237" style="stop-color:#BCD5FF"/>
				</linearGradient>
				<path class="st28" d="M70.7,33.9l2.4-1.4v0c0,0,0.1,0,0.1,0l30.4,17.6c0.1,0.1,0.2,0.2,0.2,0.3v5.7c0,0.1,0,0.1-0.1,0.1l0,0h0
					c0,0,0,0,0,0l-2.5,1.4l0-2.8L73.2,38.7c-0.1-0.1-0.2-0.2-0.2-0.3v-2L70.7,33.9z"/>
				
					<linearGradient id="SVGID_20_" gradientUnits="userSpaceOnUse" x1="854.0428" y1="126.0076" x2="843.3306" y2="146.9487" gradientTransform="matrix(-1 0 0 -1 932.0824 187.3937)">
					<stop  offset="0" style="stop-color:#C0D6FF"/>
					<stop  offset="0.2978" style="stop-color:#C5DBFF"/>
					<stop  offset="0.6488" style="stop-color:#D3E9FF"/>
					<stop  offset="1" style="stop-color:#E9FFFF"/>
				</linearGradient>
				<path class="st29" d="M70.8,40.1l30.4,17.6c0.1,0.1,0.2,0,0.2-0.1v-5.7c0-0.1-0.1-0.3-0.2-0.3L70.8,33.9c-0.1-0.1-0.2,0-0.2,0.1
					v5.7C70.6,39.9,70.7,40.1,70.8,40.1z"/>
				<path class="st30" d="M75,39l23.7,13.9c-0.7,0.6-1.4,1.4-2.1,2.1L72.8,41.3C73.4,40.4,74.2,39.7,75,39z"/>
				<path class="st4" d="M71.7,38.4L100.3,55c0.1,0,0.1,0,0.1-0.1v-1.4c0-0.1-0.1-0.2-0.1-0.2L71.7,36.7c-0.1,0-0.1,0-0.1,0.1v1.4
					C71.5,38.3,71.6,38.4,71.7,38.4z"/>
				<path class="st5" d="M71.7,36.7l0.6,0.3v0.8c0,0.1,0.1,0.2,0.1,0.2l28.1,16.2v0.7c0,0.1-0.1,0.1-0.1,0.1L71.7,38.4
					c-0.1,0-0.1-0.1-0.1-0.2v-1.4C71.5,36.7,71.6,36.6,71.7,36.7z"/>
			</g>
			
				<linearGradient id="SVGID_21_" gradientUnits="userSpaceOnUse" x1="882.998" y1="88.3656" x2="848.9523" y2="148.6916" gradientTransform="matrix(-1 0 0 -1 932.0824 187.3937)">
				<stop  offset="0" style="stop-color:#C0D6FF"/>
				<stop  offset="7.820000e-02" style="stop-color:#C3D9FF"/>
				<stop  offset="0.1341" style="stop-color:#CCE2FF"/>
				<stop  offset="0.1829" style="stop-color:#DCF2FF"/>
				<stop  offset="0.2117" style="stop-color:#E9FFFF"/>
				<stop  offset="0.256" style="stop-color:#D8EEFF"/>
				<stop  offset="0.3145" style="stop-color:#CBE1FF"/>
				<stop  offset="0.3869" style="stop-color:#C2D8FF"/>
				<stop  offset="0.5143" style="stop-color:#C0D6FF"/>
				<stop  offset="0.6239" style="stop-color:#D0E6FF"/>
				<stop  offset="0.755" style="stop-color:#E9FFFF"/>
				<stop  offset="1" style="stop-color:#C0D6FF"/>
			</linearGradient>
			<path class="st31" d="M55.5,100.6L31.7,86.8l0,0c3.1-1.8,5.7-5.7,6.5-9.4c0.3-1.5,1.2-2.8,2.6-3.6l18-10.4
				c5-2.9,8.3-8.1,8.6-13.9c0.3-4.9,4-9.7,6.9-11.4l0,0l23.9,13.8l0,0c-2.8,1.6-5.9,6.2-6.3,11c-0.4,5.8-3.6,11-8.6,13.9L64.6,87.6
				c-1.3,0.8-2.3,2.1-2.6,3.6C61.2,94.9,58.6,98.8,55.5,100.6L55.5,100.6z"/>
			<path class="st32" d="M74.2,38.1l23.9,13.8c-0.2,0.1-0.4,0.2-0.6,0.4l0,0L73.7,38.5C73.9,38.4,74,38.2,74.2,38.1z"/>
		</g>
		<g class="st33">
			<polygon class="st5" points="83.2,54.4 87.4,56.9 87.4,56.4 83.2,54 			"/>
			<polygon class="st5" points="81.1,53.2 82.6,54.1 82.6,53.6 81.1,52.7 			"/>
			<polygon class="st5" points="79.5,52.3 80.5,52.8 80.5,52.4 79.5,51.8 			"/>
			<polygon class="st5" points="85,56.6 87.3,58 87.3,57.5 85,56.1 			"/>
			<polygon class="st5" points="81.6,54.6 84.4,56.3 84.4,55.8 81.6,54.2 			"/>
			<polygon class="st5" points="80,53.7 81,54.3 81,53.8 80,53.2 			"/>
			<polygon class="st5" points="78.4,52.8 79.4,53.4 79.5,52.9 78.5,52.3 			"/>
			<polygon class="st5" points="85.6,58.1 87.2,59.1 87.3,58.6 85.6,57.6 			"/>
			<polygon class="st5" points="84.3,57.4 84.9,57.7 85,57.2 84.4,56.9 			"/>
			<polygon class="st5" points="82.7,56.4 83.7,57 83.7,56.5 82.7,55.9 			"/>
			<polygon class="st5" points="81,56.6 87.2,60.2 87.2,59.7 81.1,56.1 			"/>
			<polygon class="st5" points="78.9,55.4 80.4,56.2 80.4,55.8 79,54.9 			"/>
			<polygon class="st5" points="85.4,60.4 87.1,61.4 87.1,60.9 85.4,59.9 			"/>
			<polygon class="st5" points="81.5,58 84.7,60 84.8,59.5 81.5,57.6 			"/>
			<polygon class="st5" points="79.8,57.1 80.8,57.7 80.9,57.2 79.9,56.6 			"/>
			<polygon class="st5" points="83.5,60.4 87,62.5 87,62 83.6,60 			"/>
			<polygon class="st5" points="80.4,58.6 82.9,60.1 82.9,59.6 80.5,58.1 			"/>
			<polygon class="st5" points="78.2,57.3 79.8,58.2 79.9,57.7 78.2,56.8 			"/>
			<polygon class="st5" points="85.7,63 86.9,63.7 86.9,63.2 85.8,62.4 			"/>
			<polygon class="st5" points="83.5,61.6 85.1,62.6 85.1,62.1 83.6,61.1 			"/>
			<polygon class="st5" points="80.4,59.8 82.9,61.3 82.9,60.8 80.5,59.3 			"/>
			<polygon class="st5" points="83.2,62.7 86.8,64.8 86.9,64.3 83.3,62.2 			"/>
			<polygon class="st5" points="79.3,60.3 82.6,62.3 82.6,61.8 79.3,59.8 			"/>
			<polygon class="st5" points="77.6,59.3 78.6,59.9 78.7,59.4 77.7,58.8 			"/>
			<polygon class="st5" points="76.1,58.3 77.1,58.9 77.1,58.5 76.1,57.9 			"/>
			<polygon class="st5" points="84.6,64.7 86.7,66 86.8,65.5 84.6,64.2 			"/>
			<polygon class="st5" points="75,49.7 72.3,48.1 72.3,47.7 75.1,49.2 			"/>
			<polygon class="st5" points="74.3,50.4 72.1,49.1 72.2,48.7 74.3,49.9 			"/>
			<polygon class="st5" points="73.6,51.1 72,50.2 72.1,49.7 73.6,50.6 			"/>
			<polygon class="st5" points="74.1,52.5 71.9,51.2 71.9,50.8 74.2,52.1 			"/>
			<polygon class="st5" points="73.3,53.2 71.7,52.3 71.8,51.8 73.3,52.7 			"/>
			<polygon class="st5" points="73.6,54.5 71.6,53.3 71.6,52.9 73.6,54 			"/>
			<polygon class="st5" points="72.5,55.1 71.4,54.4 71.5,53.9 72.6,54.6 			"/>
			<polygon class="st5" points="73.4,56.8 71.3,55.5 71.4,55 73.5,56.3 			"/>
			<polygon class="st5" points="73.2,57.8 71.2,56.6 71.2,56.1 73.2,57.3 			"/>
			<polygon class="st5" points="83,63.7 83.9,64.3 84,63.8 83,63.2 			"/>
			<polygon class="st5" points="80.3,62.1 82.3,63.3 82.4,62.8 80.4,61.6 			"/>
		</g>
		<g class="st33">
			<g>
				<g>
					<polygon class="st5" points="67.8,70.2 61.6,66.6 62,66.4 68.2,70 					"/>
					<polygon class="st5" points="71.4,72.3 69.2,71 69.6,70.8 71.9,72.1 					"/>
					<polygon class="st5" points="73.2,73.4 72.6,73 73,72.7 73.7,73.1 					"/>
					<polygon class="st5" points="76.6,75.3 74.4,74 74.8,73.8 77,75.1 					"/>
				</g>
				<g>
					<polygon class="st5" points="62.5,68.2 60.7,67.2 61.1,66.9 62.9,68 					"/>
					<polygon class="st5" points="70.5,72.9 63.8,69 64.3,68.8 70.9,72.6 					"/>
					<polygon class="st5" points="72.3,73.9 71.6,73.5 72.1,73.3 72.7,73.6 					"/>
					<polygon class="st5" points="75.7,75.8 73.4,74.6 73.9,74.3 76.1,75.6 					"/>
					<polygon class="st5" points="60.6,68.2 59.7,67.7 60.2,67.4 61.1,68 					"/>
					<polygon class="st5" points="63.1,69.6 62,69 62.5,68.8 63.5,69.4 					"/>
					<polygon class="st5" points="64.9,70.7 64.2,70.3 64.7,70 65.3,70.4 					"/>
					<polygon class="st5" points="68.3,72.6 66,71.3 66.5,71.1 68.7,72.4 					"/>
					<polygon class="st5" points="60.6,69.3 58.8,68.2 59.3,68 61.1,69 					"/>
					<polygon class="st5" points="64.3,71.4 62,70.1 62.4,69.8 64.7,71.1 					"/>
					<polygon class="st5" points="66.1,72.4 65.4,72 65.8,71.8 66.5,72.2 					"/>
					<polygon class="st5" points="69.4,74.4 67.2,73.1 67.6,72.8 69.9,74.1 					"/>
				</g>
			</g>
			<g>
				<g>
					<polygon class="st5" points="64,72.4 57.8,68.8 58.3,68.5 64.5,72.1 					"/>
					<polygon class="st5" points="67.7,74.5 65.4,73.2 65.9,72.9 68.1,74.2 					"/>
					<polygon class="st5" points="69.5,75.5 68.8,75.1 69.3,74.9 69.9,75.3 					"/>
					<polygon class="st5" points="72.9,77.5 70.6,76.2 71.1,75.9 73.3,77.2 					"/>
				</g>
				<g>
					<polygon class="st5" points="58.7,70.4 56.9,69.3 57.4,69.1 59.2,70.1 					"/>
					<polygon class="st5" points="66.7,75 60.1,71.2 60.5,70.9 67.2,74.8 					"/>
					<polygon class="st5" points="68.5,76.1 67.9,75.7 68.3,75.4 69,75.8 					"/>
					<polygon class="st5" points="71.9,78 69.7,76.7 70.1,76.5 72.4,77.8 					"/>
					<polygon class="st5" points="56.9,70.4 56,69.9 56.4,69.6 57.3,70.1 					"/>
					<polygon class="st5" points="59.3,71.8 58.3,71.2 58.7,70.9 59.8,71.5 					"/>
					<polygon class="st5" points="61.2,72.8 60.5,72.5 60.9,72.2 61.6,72.6 					"/>
					<polygon class="st5" points="64.5,74.8 62.3,73.5 62.7,73.2 65,74.5 					"/>
					<polygon class="st5" points="56.9,71.4 55.1,70.4 55.5,70.1 57.3,71.2 					"/>
					<polygon class="st5" points="60.5,73.5 58.3,72.2 58.7,72 60.9,73.3 					"/>
					<polygon class="st5" points="62.3,74.6 61.6,74.2 62.1,73.9 62.7,74.3 					"/>
					<polygon class="st5" points="65.7,76.5 63.4,75.2 63.9,75 66.1,76.3 					"/>
				</g>
			</g>
			<g>
				<g>
					<polygon class="st5" points="60.3,74.6 54.1,71 54.5,70.7 60.7,74.3 					"/>
					<polygon class="st5" points="63.9,76.6 61.7,75.4 62.1,75.1 64.4,76.4 					"/>
					<polygon class="st5" points="65.7,77.7 65.1,77.3 65.5,77.1 66.2,77.4 					"/>
					<polygon class="st5" points="69.1,79.6 66.9,78.3 67.3,78.1 69.6,79.4 					"/>
				</g>
				<g>
					<polygon class="st5" points="55,72.5 53.2,71.5 53.6,71.2 55.4,72.3 					"/>
					<polygon class="st5" points="63,77.2 56.4,73.3 56.8,73.1 63.4,76.9 					"/>
					<polygon class="st5" points="64.8,78.2 64.1,77.8 64.6,77.6 65.2,78 					"/>
					<polygon class="st5" points="68.2,80.2 65.9,78.9 66.4,78.6 68.6,79.9 					"/>
					<polygon class="st5" points="53.1,72.6 52.2,72 52.7,71.8 53.6,72.3 					"/>
					<polygon class="st5" points="55.6,74 54.5,73.3 55,73.1 56,73.7 					"/>
					<polygon class="st5" points="57.4,75 56.7,74.6 57.2,74.4 57.8,74.8 					"/>
					<polygon class="st5" points="60.8,77 58.5,75.7 59,75.4 61.2,76.7 					"/>
					<polygon class="st5" points="53.1,73.6 51.3,72.6 51.8,72.3 53.6,73.4 					"/>
					<polygon class="st5" points="56.8,75.7 54.5,74.4 55,74.1 57.2,75.4 					"/>
					<polygon class="st5" points="58.6,76.7 57.9,76.4 58.3,76.1 59,76.5 					"/>
					<polygon class="st5" points="61.9,78.7 59.7,77.4 60.1,77.1 62.4,78.4 					"/>
				</g>
			</g>
		</g>
	</g>
	<path class="st34" d="M44,44.8l-8.7-5l8.7-5l8.7,5L44,44.8z M35.8,39.8l8.2,4.7l8.2-4.7L44,35.1L35.8,39.8z"/>
	<path class="st34" d="M26.9,104.1l-8.7-5l8.7-5l8.7,5L26.9,104.1z M18.7,99.1l8.2,4.7l8.2-4.7l-8.2-4.7L18.7,99.1z"/>
	<path class="st34" d="M86.6,10.3l-8.7-5l8.7-5l8.7,5L86.6,10.3z M78.4,5.3l8.2,4.7l8.2-4.7l-8.2-4.7L78.4,5.3z"/>
	<path class="st34" d="M121,89.2l-8.7-5l8.7-5l8.7,5L121,89.2z M112.8,84.2L121,89l8.2-4.7l-8.2-4.7L112.8,84.2z"/>
</g>
</svg>
